<svg width="206" height="112" viewBox="0 0 206 112" fill="none" xmlns="http://www.w3.org/2000/svg">
<path d="M76.5017 11.8941C77.4114 13.3453 80.5513 15.9008 83.4271 17.4468C86.9191 19.3397 88.6211 21.138 88.6211 22.9994C88.6211 23.9775 88.445 24.3876 87.8288 24.9239C87.0952 25.5549 86.8017 25.5865 84.7476 25.3972C83.339 25.271 82.4587 25.3025 82.4587 25.4918C82.4587 26.0282 84.865 26.88 86.8604 27.0693C88.0048 27.1639 89.3254 27.5425 90.1764 27.9842C93.0228 29.5301 96.5148 29.2462 99.2732 27.1955C100.124 26.5645 101.474 25.902 102.266 25.6811C103.704 25.3341 103.704 25.3025 102.853 25.0817C101.797 24.7977 101.239 24.356 101.239 23.8197C101.239 23.1256 102.178 22.9363 106.345 22.8417C110.571 22.7786 112.42 22.3053 112.83 21.2011C113.065 20.5386 112.919 20.4755 111.774 20.8225C110.219 21.3273 105.7 21.2011 103.352 20.6017C101.063 20.0338 100.506 20.16 98.5983 21.7375C98.1875 22.053 97.4245 22.4315 96.8963 22.5262C96.016 22.6839 95.7812 22.5893 94.9889 21.5482C92.5533 18.4879 90.5285 17.1944 86.8604 16.2479C84.4835 15.6484 80.786 13.9448 78.0863 12.1465C76.0322 10.8214 75.8268 10.7899 76.5017 11.8941Z" fill="black"/>
<path d="M178.416 47.671C177.506 47.7656 175.716 48.302 174.454 48.8068C172.019 49.8163 170.141 50.3211 167.118 50.7313L165.358 50.9837L166.238 51.4884C166.737 51.7408 167.617 52.0563 168.233 52.1825L169.319 52.4034L168.497 53.7284C167.558 55.1797 166.385 58.3346 166.385 59.3442C166.385 59.9437 166.414 59.9437 167.588 59.2496C169.319 58.1769 172.459 55.022 173.31 53.4445C174.161 51.867 174.777 51.4253 176.01 51.4253C177.33 51.4253 179.502 52.3403 179.971 53.0975C180.206 53.476 181.145 54.6434 182.055 55.6845C184.138 58.0822 185.605 60.4169 186.104 62.089C186.31 62.8146 186.574 63.4141 186.691 63.4141C186.985 63.4141 187.513 61.2372 187.513 59.9121C187.513 58.1453 186.985 55.5268 186.31 54.0124C185.899 53.129 184.96 52.0563 183.61 50.889L181.556 49.1222L182.201 48.5228C182.7 48.1127 182.759 47.9234 182.495 47.8287C181.703 47.5448 180.001 47.4817 178.416 47.671Z" fill="black"/>
<path d="M105.934 48.2389C105.934 48.3966 106.844 49.4377 107.93 50.542C109.338 51.9617 110.864 53.0659 112.948 54.2332C117.379 56.6625 119.228 59.0918 118.259 61.0794C117.672 62.2152 116.469 62.5938 114.092 62.3098C112.185 62.1205 112.038 62.1521 112.361 62.5938C112.889 63.2879 115.413 64.0451 117.115 64.0451C118.054 64.0451 118.905 64.2974 119.756 64.8338C122.456 66.4743 125.654 66.2851 128.735 64.2659C129.821 63.5718 131.318 62.7831 132.051 62.5938L133.372 62.2152L132.403 61.9628C131.552 61.7735 130.613 60.7639 130.966 60.3853C131.318 59.9752 135.103 59.5966 137.099 59.7543C139.476 59.9436 140.708 59.6597 142.117 58.6186C143.144 57.8298 142.879 57.3881 141.647 57.7667C140.18 58.2084 135.338 58.0822 133.225 57.5459C130.995 57.0096 130.32 57.1358 128.853 58.3662C128.266 58.871 127.297 59.3758 126.711 59.4704C125.801 59.6597 125.566 59.5651 125.097 58.9341C122.778 55.716 120.431 54.1701 116.205 53.0343C113.476 52.3087 110.454 50.8574 107.871 49.0907C106.111 47.8918 105.934 47.7972 105.934 48.2389Z" fill="black"/>
<path d="M51.588 58.0507C50.8251 58.2084 49.1524 58.7448 47.8906 59.2811C45.7484 60.1645 43.841 60.6062 40.3783 61.0794C38.9991 61.2372 38.9698 61.2687 39.6154 61.742C39.9675 62.0259 40.8479 62.3099 41.5521 62.4045C42.2564 62.4676 42.8433 62.6253 42.8433 62.6884C42.8433 62.7515 42.4618 63.4456 41.963 64.2028C41.4934 64.96 40.9359 65.9696 40.7598 66.4744C40.0849 68.3358 39.6741 70.0394 39.8795 70.1972C40.2023 70.3865 43.7236 67.7679 44.9855 66.3482C45.6017 65.6541 46.5407 64.3921 47.0396 63.5403C47.9493 62.0575 48.0373 61.9944 49.4459 61.9313C50.3849 61.8682 51.2946 62.0259 51.9695 62.4045C53.9063 63.3825 58.8362 69.8186 59.6285 72.311C60.1273 73.9515 60.3915 74.0146 60.7436 72.5318C61.2131 70.7651 60.9197 67.4208 60.1567 65.2124C59.5698 63.5403 58.7481 62.5307 56.3712 60.5746L55.0801 59.502L55.7256 58.9656C56.0778 58.6501 56.2538 58.3346 56.1365 58.2715C55.6083 57.9245 52.8792 57.7983 51.588 58.0507Z" fill="black"/>
<path d="M13.2051 72.9104C12.7943 73.0997 12.1781 73.5099 11.8259 73.8569C11.5031 74.2355 10.6815 74.5825 10.0359 74.6772C8.97949 74.8349 8.83276 74.7718 8.3339 73.8569C8.04046 73.3206 7.68832 72.8789 7.57094 72.8789C7.45356 72.8789 7.33618 74.5825 7.33618 76.6648C7.33618 80.3876 7.33618 80.4507 8.01111 80.4507C9.1849 80.4507 10.6815 79.8513 12.3248 78.7155C13.3225 78.0214 14.2909 77.6113 14.8778 77.6113C16.0809 77.6113 16.1396 77.1065 14.9952 76.8225C14.1735 76.6332 13.5866 75.8445 13.9387 75.4344C14.0268 75.3397 15.9929 75.182 18.2818 75.0873C22.3313 74.9296 23.2704 74.6772 24.0333 73.6991C24.3561 73.2575 24.092 73.2259 21.4803 73.4152C18.898 73.573 16.8439 73.3837 14.3789 72.7211C14.1442 72.658 13.616 72.7527 13.2051 72.9104Z" fill="black"/>
<path d="M164.917 75.9391C164.917 76.0338 165.24 76.6017 165.651 77.1696C166.737 78.7155 169.436 80.8293 172.166 82.2806C176.831 84.8045 178.68 87.707 176.861 89.5369C176.303 90.1048 175.775 90.231 173.574 90.2941L170.933 90.3887L172.107 90.9882C172.752 91.3352 174.132 91.6822 175.188 91.7453C176.479 91.84 177.653 92.1555 178.856 92.7549C179.825 93.2597 181.174 93.7645 181.849 93.8591C183.551 94.1431 186.28 93.3228 188.217 91.9346C189.274 91.1775 190.301 90.7358 191.21 90.6096C192.531 90.4518 192.56 90.4518 191.885 90.0417C191.504 89.8208 190.976 89.6315 190.711 89.6C190.242 89.6 189.714 88.7166 189.978 88.4327C190.359 88.0225 192.707 87.707 195.524 87.707H198.664V86.9183C198.664 86.1611 198.576 86.1296 196.844 86.1296C195.817 86.098 194.145 85.9087 193.088 85.6563C190.066 84.9307 189.303 85.0253 187.836 86.2873C186.046 87.8332 184.666 87.8332 183.581 86.2873C181.585 83.4794 179.502 82.1228 175.481 81.0501C172.811 80.356 169.759 78.9363 166.913 77.0434C165.798 76.3493 164.917 75.8445 164.917 75.9391Z" fill="black"/>
<path d="M91.2621 88.7797C90.3818 89.0321 88.4744 89.6631 87.0071 90.231C85.1877 90.9566 83.6618 91.3037 81.9598 91.4299C80.61 91.493 79.5242 91.7138 79.5242 91.84C79.5242 92.2817 81.1969 93.0704 82.1066 93.0704C83.251 93.0704 83.3977 93.3228 82.7228 94.1431C82.3707 94.4901 81.8718 95.3104 81.5783 95.9099C80.9915 97.1403 79.9937 100.611 80.1698 100.8C80.2285 100.863 81.0795 100.39 82.0185 99.7273C84.1607 98.2761 86.3909 95.9414 87.1538 94.3008C87.8581 92.8496 88.5037 92.4394 90.0003 92.471C91.9664 92.5025 92.9054 93.1335 95.3117 95.9414C98.0994 99.2225 99.3613 101.147 99.9775 103.04C100.623 105.059 101.063 104.397 101.181 101.305C101.298 98.6231 100.77 95.9099 99.7721 94.1746C99.4493 93.6383 98.4809 92.6287 97.6006 91.9662C95.7519 90.5149 95.4291 89.947 96.1333 89.3791C96.4268 89.1583 96.6028 88.9059 96.5148 88.8428C96.1627 88.4327 92.7 88.4011 91.2621 88.7797Z" fill="black"/>
</svg>
