<svg width="164" height="151" viewBox="0 0 164 151" fill="none" xmlns="http://www.w3.org/2000/svg">
<path d="M73.5818 37.3466C63.2304 40.574 56.3711 46.395 52.3802 55.4435L50.946 58.7286L44.835 58.6133C39.0357 58.5557 38.5992 58.6133 34.546 60.5153C31.5529 61.9561 29.4951 63.4546 27.4996 65.7023C25.3171 68.1805 24.3818 68.8721 23.1346 68.7569C14.0928 68.1229 10.6631 68.8145 6.48517 72.2149C1.6213 76.1916 -0.0623549 80.7446 1.55894 85.8164C3.30495 91.0611 9.04183 95.153 15.8388 96.0175C18.4578 96.3634 18.7072 96.5939 20.2038 99.4179C22.324 103.395 28.2479 108.524 33.2365 110.714C42.5278 114.691 52.692 115.094 62.9186 111.867L68.7179 109.965L72.584 111.579C75.7019 112.904 77.2608 113.192 81.3764 113.25C85.8038 113.25 86.8639 113.019 90.6053 111.348L94.7833 109.446L96.654 110.656C106.881 117.4 120.724 116.132 130.764 107.544L134.567 104.259L139.556 104.663C146.602 105.181 152.027 103.625 156.642 99.7637C163.065 94.3462 164.624 88.0065 161.256 81.6092C157.889 75.2695 150.843 71.408 142.424 71.2927L137.997 71.2351L136.189 68.4111C133.881 64.8378 128.332 60.0542 124.341 58.2099C122.657 57.4607 119.227 56.4233 116.671 55.9046L112.056 54.9824L109.624 51.2362C106.195 45.9916 101.206 41.7843 94.908 39.0179C90.0441 36.8279 89.2335 36.655 83.3719 36.4821C78.4456 36.3668 76.2631 36.5397 73.5818 37.3466Z" fill="white"/>
</svg>
