<svg width="218" height="181" viewBox="0 0 218 181" fill="none" xmlns="http://www.w3.org/2000/svg">
<path d="M101.719 58.644C95.7892 59.549 90.2084 62.1554 86.7204 65.5944C82.404 69.9022 81.0088 73.7032 81.1396 80.6174C81.1832 82.898 81.096 84.8166 81.0088 84.889C80.9216 84.9614 79.8752 84.6356 78.698 84.165C75.0792 82.6446 69.76 83.1514 66.9696 85.3234C64.4844 87.2058 62.784 92.2376 62.784 97.6314V99.188L60.0808 96.9074C58.0752 95.2422 56.7236 94.4458 55.1976 94.0114C52.3636 93.215 48.614 93.215 46.652 94.0476C44.5592 94.9164 42.074 97.7762 40.9404 100.708C40.4172 102.048 39.9376 103.17 39.8504 103.17C39.7632 103.17 39.1092 102.446 38.368 101.541C34.5312 96.8712 27.2936 96.6902 21.5384 101.07C18.9224 103.061 16.132 106.573 16.132 107.948V108.962L59.6884 108.926C83.6248 108.89 103.463 108.998 103.724 109.143C104.03 109.252 104.64 110.157 105.163 111.062C109.087 117.976 120.423 119.894 127.399 114.79C128.271 114.175 129.056 113.668 129.187 113.668C129.318 113.668 129.71 114.428 130.102 115.333C130.931 117.36 133.154 119.894 134.942 120.799C137.34 121.994 138.822 122.284 142.703 122.32C149.156 122.392 153.123 120.727 156.088 116.781C157.309 115.188 157.788 114.79 158.486 114.971C160.579 115.442 165.157 115.514 166.988 115.116C168.906 114.682 171.61 112.799 173.092 110.844C173.79 109.939 173.005 109.976 197.421 109.722C202.173 109.686 202.348 109.433 199.775 106.645C197.028 103.604 192.93 102.41 188.308 103.315L186.739 103.604L186.259 102.012C185.213 98.5364 182.292 96.4368 178.978 96.7988C178.019 96.9074 176.624 97.0884 175.926 97.197C174.618 97.4504 174.574 97.4142 173.615 94.9164C171.784 90.1742 169.735 88.69 165.026 88.69C163.238 88.69 161.8 88.9434 160.666 89.414C159.75 89.8122 158.922 90.1018 158.878 90.0294C158.835 89.9932 158.486 88.69 158.137 87.0972C157.265 83.622 155.39 80.2192 153.254 78.2282C152.338 77.3956 150.289 76.201 148.589 75.477C145.886 74.3548 145.101 74.21 142.18 74.21C139.433 74.21 138.43 74.391 136.25 75.2598C134.811 75.839 133.154 76.6354 132.588 77.0698C131.28 78.011 130.931 77.83 130.582 75.9114C128.925 67.8026 122.342 61.3952 113.36 59.2232C110.395 58.4992 104.684 58.2096 101.719 58.644Z" fill="white"/>
</svg>
