<svg width="1374" height="390" viewBox="0 0 1374 390" fill="none" xmlns="http://www.w3.org/2000/svg">
<path d="M864.982 15.4853C862.008 24.6618 856.72 37.8529 852.755 44.7353C849.119 52.1912 843.501 71.6912 840.527 87.75C837.553 104.382 831.605 125.029 827.639 134.779C823.673 143.956 817.725 163.456 814.42 177.794C807.15 208.765 797.236 229.412 789.635 229.412C786.661 229.412 775.756 216.221 764.85 200.735C753.945 184.676 744.031 172.059 742.709 172.059C741.387 172.059 734.117 160.588 726.516 146.25C718.915 131.912 711.314 120.441 709.662 120.441C708.01 120.441 700.409 111.265 692.808 100.368C685.538 89.4706 677.607 80.2941 675.624 80.2941C673.311 80.2941 662.405 100.368 651.169 125.603C639.273 151.985 625.723 174.926 618.453 181.235C611.844 187.544 599.947 201.882 592.346 213.353C584.415 225.397 576.153 235.147 573.51 235.147C570.866 235.147 562.935 228.838 556.325 220.809C539.471 200.735 518.652 199.588 507.086 217.941C503.45 223.676 489.24 234 475.691 240.309C462.142 246.618 443.636 255.794 434.383 260.956C425.46 265.544 416.207 268.412 414.224 267.265C412.242 266.118 408.937 267.265 407.615 269.559C404.641 274.721 394.396 278.162 356.723 284.471C344.826 286.765 333.59 290.206 331.938 293.074C329.955 295.368 326.32 295.368 324.007 293.074C321.363 290.206 314.754 290.779 309.136 293.647C293.273 302.25 265.184 309.706 237.755 312C229.493 313.147 218.918 317.735 214.622 322.324C203.717 333.794 188.185 340.103 188.185 332.647C188.185 326.338 165.052 328.632 158.443 335.515C156.129 338.382 151.503 333.794 146.876 324.618C139.936 310.853 138.945 310.279 133.988 318.309C131.014 323.471 127.379 326.338 125.396 324.044C123.743 322.324 119.447 323.471 115.812 326.338C111.186 330.926 109.203 330.926 108.211 325.765C107.22 321.75 103.254 324.044 96.3147 332.647C86.0702 345.838 85.7397 345.838 68.8859 336.662C59.6328 330.926 48.3969 326.912 43.7703 326.912C39.1438 326.912 30.5517 322.897 24.2728 317.735C15.6806 310.853 11.715 309.706 8.41034 314.868C6.09706 318.309 -2.82556 322.897 -11.4177 324.618C-20.0099 326.912 -27.6106 330.926 -28.602 333.221C-29.5934 336.088 -40.4988 338.382 -52.7261 338.382C-65.6144 338.382 -80.4854 342.397 -87.7557 347.559C-94.365 352.147 -116.506 362.471 -136.665 370.5C-157.154 378.529 -174.338 385.985 -174.999 387.706C-175.66 388.853 178.601 390 612.174 390H1401V353.294C1401 330.926 1399.35 314.868 1397.03 310.853C1391.42 303.971 1377.54 296.515 1334.91 278.162C1315.74 270.132 1296.57 259.235 1291.95 253.5C1287.32 247.765 1277.41 236.868 1269.47 229.412L1255.26 215.647L1238.08 231.132C1227.17 241.456 1218.58 246.044 1214.95 243.176C1208.67 239.162 1197.76 243.75 1161.41 263.824C1150.51 270.132 1139.6 275.294 1136.96 275.294C1129.36 275.294 1099.28 236.868 1090.69 216.794C1086.39 206.471 1076.48 188.691 1068.88 177.794C1060.95 166.897 1048.39 143.956 1040.46 127.897C1032.53 111.265 1023.61 97.5 1021.29 97.5C1018.65 97.5 1006.09 109.544 993.534 123.882C968.418 153.132 960.817 153.132 949.581 123.309C946.607 115.279 941.981 108.971 939.667 108.971C932.728 108.971 912.239 74.5588 895.385 34.9853C887.123 16.0588 878.201 0.573522 875.557 -7.15256e-06C872.583 -7.15256e-06 867.956 6.88235 864.982 15.4853Z" fill="#71BA85"/>
<path d="M358.944 97.5333C338.668 136.767 337.033 138.104 328.53 124.729C316.429 105.558 308.253 110.017 288.631 145.238C278.82 162.625 267.046 180.013 262.468 184.025C257.889 188.038 248.732 197.846 242.191 205.871C218.318 234.404 195.752 244.213 176.457 234.404C170.57 231.283 166.646 232.175 161.413 237.079C156.507 241.538 150.621 242.875 143.426 241.092C127.728 237.079 91.4266 257.142 69.515 281.663C59.7039 292.808 45.9682 305.738 39.4275 310.196L27 318.667V354.333V390L390.013 388.663C794.233 387.771 761.529 390.446 757.931 356.563C755.315 331.15 749.755 322.679 733.077 315.992C702.989 304.4 669.958 287.013 667.669 282.108C665.052 276.313 644.776 265.613 630.386 262.046C625.154 260.708 617.632 256.696 614.034 253.575C610.437 250.008 603.569 247.333 598.664 247.333C593.758 247.333 583.293 243.321 575.771 238.863C504.476 194.279 503.822 194.279 486.162 199.629C477.005 201.858 467.194 203.196 464.251 201.413C461.307 200.075 454.113 188.483 448.226 176.446C442.339 163.963 435.144 152.817 432.201 151.479C429.258 150.142 424.025 140.779 420.755 130.525C414.541 111.354 384.78 69 377.912 69C375.623 69 367.447 81.9292 358.944 97.5333Z" fill="#71BA86"/>
</svg>
