<svg width="1251" height="188" viewBox="0 0 1251 188" fill="none" xmlns="http://www.w3.org/2000/svg">
<path d="M826.436 1.89683C823.554 2.77984 817.002 7.19487 812.023 11.6099C795.775 25.738 791.583 27.2097 772.19 24.855C755.681 23.089 753.06 23.6777 742.054 30.7417C732.095 37.5114 727.902 38.3944 716.634 37.2171C705.365 36.0397 700.124 37.2171 683.615 45.4585C672.608 51.0508 658.981 56.3489 653.216 57.5262C639.851 59.8809 618.1 54.8772 589.536 43.3981C569.095 35.1567 566.213 34.5681 554.42 37.8058C547.606 39.5718 538.958 41.0434 535.814 41.0434C532.407 41.0434 526.904 43.3981 523.497 46.3415C520.09 49.2848 511.704 53.9942 505.153 56.6432C494.409 61.3526 492.312 61.3526 483.664 57.2319C478.423 54.8772 470.561 52.8169 465.844 52.8169C461.389 52.8169 449.335 48.6962 439.114 43.3981L420.246 34.2737L393.254 39.2774C370.979 43.6925 363.904 43.9868 354.994 41.0434C345.297 38.1001 341.367 38.3944 324.333 44.2811C306.513 50.4622 289.479 58.4092 271.659 69.2996C267.99 71.6543 262.749 73.4203 260.391 73.4203C258.032 73.4203 240.474 79.307 221.344 86.6654C201.952 94.0238 183.608 99.9105 180.201 99.9105C176.794 99.9105 169.981 102.56 165.263 105.797L156.353 111.978L147.706 105.797C142.726 102.56 138.534 98.1445 138.009 96.3785C136.437 91.3748 117.569 91.0805 107.349 95.7898C102.107 98.1445 93.9837 104.326 89.2666 109.624C81.1428 118.159 80.3566 118.748 77.2119 114.039C72.7569 107.269 60.9643 105.209 57.0334 110.507C55.4611 112.861 52.0543 114.627 49.6958 114.627C47.3373 114.627 43.9305 116.099 42.0961 118.159C39.7376 120.808 38.1653 120.808 36.0688 118.454C34.2344 116.393 31.6138 117.276 27.4209 121.691C24.0141 124.929 18.5109 130.521 14.8421 133.759C7.7665 140.234 -2.19171 175.555 0.428873 183.796C2.00122 187.917 60.1781 188.211 625.962 187.917C968.996 187.917 1250.18 186.739 1250.97 185.562C1251.49 184.385 1244.94 171.434 1236.03 156.717C1222.67 134.348 1216.9 127.578 1199.61 114.627C1188.6 106.092 1175.5 94.9068 1170.78 89.3145C1166.06 83.7221 1160.3 79.307 1158.2 79.0127C1155.84 79.0127 1149.03 71.6543 1142.74 62.8243C1136.45 53.9942 1129.64 46.9301 1127.28 46.9301C1125.18 46.9301 1117.32 41.6321 1110.25 35.1567C1102.91 28.6814 1096.09 23.3833 1094.78 23.3833C1093.74 23.3833 1086.14 32.5077 1078.27 43.3981C1058.1 71.9487 1048.92 80.1901 1042.11 76.0694C1038.97 74.3033 1030.58 73.4203 1023.24 74.3033C1013.02 75.1864 1001.75 73.126 974.499 64.5903C955.107 58.4092 934.142 52.5225 928.115 51.3452C920.515 49.8735 912.653 45.4585 904.53 37.8058C897.454 31.3304 886.71 23.3833 880.42 20.1456C873.869 16.9079 864.959 11.0212 860.242 7.19487C851.856 0.130821 840.063 -1.92953 826.436 1.89683Z" fill="#025E1B"/>
</svg>
