<svg width="1189" height="321" viewBox="0 0 1189 321" fill="none" xmlns="http://www.w3.org/2000/svg">
<path d="M566.734 5.22283C562.477 8.58216 555.966 16.1407 551.96 21.5996C547.953 27.0585 539.439 36.2966 533.179 41.7555C526.919 47.2145 516.652 60.2319 510.392 70.7298C504.382 81.2277 498.122 90.0459 496.619 90.0459C495.367 90.0459 488.857 96.3447 482.346 104.323C465.569 124.059 450.795 126.999 436.521 112.721C427.757 104.323 424.502 103.063 420.495 106.423C411.981 113.981 405.22 111.462 398.459 98.4443C395.204 91.3057 389.695 85.8468 386.94 85.8468C383.685 85.8468 377.675 78.7082 372.166 68.2103L362.651 50.1539L347.125 77.4485C338.361 92.5655 328.094 112.302 324.338 120.7C320.332 129.518 312.319 140.436 306.058 145.055C300.048 150.094 295.04 155.553 295.04 157.233C295.04 163.531 266.494 190.826 259.733 190.826C255.977 190.826 248.464 187.886 242.705 184.527C233.69 179.488 230.936 179.068 222.923 184.527C217.914 187.467 206.896 192.086 198.633 194.605C190.369 197.125 170.086 203.423 153.559 209.302C137.032 214.761 116.248 220.64 107.234 222.32C98.219 223.579 84.1961 227.779 75.9326 231.558C67.6691 234.917 52.8949 237.857 43.129 237.437C28.6053 237.017 23.8475 238.696 16.8361 246.675C5.81808 258.852 -0.692555 280.688 0.0586717 302.104L0.809898 318.9L595.03 320.16L1189 321V306.723C1189 295.385 1186.5 289.086 1175.73 271.45C1163.46 252.554 1160.7 250.034 1147.43 247.515C1139.42 246.255 1124.9 241.216 1115.13 236.177C1105.36 231.558 1086.33 226.519 1072.56 225.679C1051.02 223.579 1044.01 221.06 1023.23 207.203C1009.96 197.964 995.434 189.566 990.676 188.306C986.169 187.047 977.905 182.428 972.396 178.228C958.373 167.311 944.851 159.332 926.822 150.934C912.048 143.795 910.545 143.795 895.521 150.514C886.757 154.713 870.73 165.211 859.712 174.029C834.922 193.765 827.91 195.865 812.135 188.726C804.873 185.787 798.613 184.947 797.11 187.047C795.858 189.146 791.351 190.826 786.843 190.826C782.586 190.826 774.073 193.765 768.313 197.125C762.554 200.484 753.539 203.423 748.531 203.423C739.266 203.423 714.475 184.107 694.693 161.852C689.434 155.973 680.42 147.994 674.66 144.635C667.398 140.016 662.14 132.458 655.88 116.921C649.87 101.804 643.86 92.9854 635.346 86.6866C628.835 81.6476 622.575 77.4485 621.323 77.4485C620.071 77.4485 610.055 60.6518 599.037 39.656C588.269 19.0801 578.002 1.44358 576.75 0.183831C575.248 -0.656002 570.741 1.44358 566.734 5.22283Z" fill="#039C40"/>
</svg>
