<svg width="1374" height="342" viewBox="0 0 1374 342" fill="none" xmlns="http://www.w3.org/2000/svg">
<path d="M43.5688 127.806C43.8855 129.511 43.2522 130.054 41.8271 129.821C40.0853 129.434 40.0853 129.744 41.5104 130.984C42.9355 132.301 42.7771 132.766 41.1937 133.308C39.6103 133.773 39.4519 134.006 41.0353 134.006C41.9854 134.006 42.9355 134.393 42.9355 134.858C42.9355 135.401 41.5104 135.556 39.4519 135.323L35.81 134.858L39.4519 136.331C43.0938 137.803 44.3606 139.973 41.0353 138.966C39.6103 138.578 39.7686 138.811 41.1937 139.663C44.3606 141.6 42.6188 141.91 36.1267 140.593C28.8429 139.121 28.8429 139.121 29.793 140.981C30.268 141.833 31.5347 142.53 32.6431 142.53C33.5932 142.53 35.81 143.228 37.3934 144.08C39.4519 145.165 39.6103 145.63 38.1852 145.63C36.7601 145.63 37.0768 146.018 39.1352 146.793C42.1437 147.878 42.1437 147.878 38.8185 147.955C37.0768 147.955 34.7016 147.49 33.4349 146.948C32.1681 146.483 32.4848 146.793 34.0682 147.723C35.6517 148.653 38.3435 149.66 40.0853 149.97C42.3021 150.28 42.7771 150.667 41.5104 151.287C40.402 151.83 39.1352 151.752 37.5518 151.132C36.1267 150.59 34.2266 150.28 33.1182 150.512C31.8514 150.822 32.3264 151.132 34.5433 151.442C36.285 151.752 38.1852 152.605 38.6602 153.457C39.6103 155.24 36.9184 156.247 35.6517 154.62C35.1766 153.922 33.9099 153.38 33.1182 153.38C32.1681 153.38 32.3264 153.845 33.4349 154.542C34.3849 155.162 34.8599 156.015 34.2266 156.48C33.7515 156.945 34.7016 157.255 36.4434 157.255C38.8185 157.255 39.7686 157.72 39.7686 158.882C39.7686 160.122 39.1352 160.354 36.6017 159.967C32.9598 159.424 32.4848 160.509 35.81 161.904C38.1852 162.834 37.5518 164.617 35.1766 163.919C34.5433 163.687 34.0682 164.462 34.2266 165.547C34.2266 166.709 35.1766 167.716 36.285 167.949C39.4519 168.414 36.7601 169.654 32.3264 169.654C28.8429 169.654 28.5262 169.421 29.3179 167.561C30.1096 166.321 29.793 165.314 28.5262 165.004C27.1011 164.539 27.2595 163.997 29.1596 162.679C31.8514 160.742 31.218 158.804 27.7345 158.804C24.8843 158.804 24.8843 157.72 27.8928 156.48C31.3764 155.085 30.743 154.232 26.7844 154.775C23.4592 155.162 23.3009 155.085 25.3593 153.922C26.4677 153.225 26.9428 152.605 26.3094 152.605C25.676 152.605 26.1511 152.062 27.2595 151.365C29.1596 150.202 29.0012 150.125 25.8344 150.59C21.2424 151.287 21.2424 149.97 25.8344 148.42C29.9513 147.025 28.5262 146.793 23.6176 148.033C20.7674 148.808 20.4507 148.73 21.2424 147.645C21.8758 146.948 21.5591 146.405 20.609 146.405C19.659 146.405 19.3423 146.095 19.8173 145.708C20.4507 145.32 19.8173 144.855 18.8672 144.623C17.2838 144.39 17.2838 144.08 18.5506 143.228C19.5006 142.608 19.8173 141.291 19.1839 140.206C18.2339 138.346 18.2339 138.346 16.8088 139.818C16.1754 140.671 15.3837 141.6 15.2253 141.91C14.9087 142.298 14.7503 142.608 14.4336 142.685C13.3252 143.46 13.6419 147.8 15.067 148.653C16.3338 149.505 16.3338 149.815 14.9087 150.047C13.8003 150.28 12.8502 151.055 12.8502 151.907C12.8502 153.767 10.3167 153.845 8.25823 152.062C7.46651 151.287 6.19976 150.9 5.72473 151.21C4.1413 151.985 6.35811 153.38 10.6334 154.155C15.067 155.007 15.8587 156.867 11.5834 156.247C9.20829 156.015 8.57492 156.325 8.73326 157.952C8.8916 159.424 9.68332 159.889 11.7418 159.734C13.1669 159.579 14.4336 159.889 14.4336 160.354C14.4336 161.594 8.57492 161.284 5.88308 159.889C2.08283 158.029 2.87455 159.657 6.83314 161.672C10.475 163.532 8.57492 164.074 3.03289 162.602C-2.35079 161.207 0.341052 163.609 6.19976 165.392C11.2668 167.019 13.1669 168.646 8.8916 167.794C7.62485 167.561 6.51645 167.639 6.51645 168.026C6.51645 168.414 8.09989 168.879 10 169.189C12.6918 169.499 13.1669 169.809 11.7418 170.506C10.7917 170.971 9.04995 171.126 7.94154 170.739C6.83314 170.429 4.1413 170.041 1.92449 169.964C-0.133978 169.809 -2.50913 169.266 -3.14251 168.724C-4.09257 167.949 -4.88429 167.949 -6.30938 168.646C-7.57613 169.266 -7.1011 169.731 -4.40925 170.429C2.24117 172.134 10.9501 177.403 7.14982 177.403C6.67479 177.403 4.1413 176.706 1.6078 175.776C-0.925696 174.923 -2.98416 174.536 -2.98416 174.923C-2.98416 175.311 -1.40073 176.241 0.657739 176.861L4.1413 178.101H0.182709C-2.0341 178.178 -5.51766 177.636 -7.41778 176.938C-9.3179 176.318 -10.9013 176.086 -10.9013 176.473C-10.9013 176.861 -9.15956 177.636 -6.94275 178.178C-4.72594 178.721 -2.98416 179.496 -2.98416 179.883C-2.98416 180.968 -7.73447 180.581 -10.4263 179.341C-11.6931 178.643 -13.2765 178.333 -13.7515 178.566C-14.3849 178.798 -13.7515 179.341 -12.4848 179.806C-10.4263 180.426 -10.4263 180.581 -12.4848 181.278C-14.2266 181.821 -13.4348 182.053 -9.00122 182.053C-5.83435 182.053 -2.66748 182.363 -2.19244 182.828C-1.71741 183.215 -2.0341 183.603 -2.98416 183.603C-4.09257 183.603 -4.40925 184.145 -3.93422 184.843C-3.14251 185.773 -3.77588 185.928 -6.46772 185.463C-9.63459 184.998 -9.79294 185.075 -7.89281 186.16C-6.46772 187.09 -5.04263 187.245 -2.98416 186.703C2.55786 185.23 5.56639 188.873 0.657739 191.197C-1.87576 192.437 16.9671 192.515 293.91 192.747C456.529 192.825 590.012 192.747 590.487 192.592C591.754 191.972 589.062 189.028 587.162 189.028C586.054 189.028 584.312 189.725 583.204 190.578C582.095 191.43 580.512 192.127 579.562 192.127C577.503 192.127 579.245 189.105 582.254 187.4C585.579 185.54 584.945 185.23 579.087 185.695C574.178 186.083 573.703 185.928 574.495 184.533C574.811 183.68 576.553 182.828 578.295 182.595C581.62 182.131 582.412 180.503 579.245 180.503C578.137 180.503 576.395 180.891 575.445 181.356C572.436 182.828 569.586 181.356 572.436 179.806C574.811 178.566 574.653 178.488 570.22 178.798C565.469 179.108 563.727 178.023 567.369 176.938C568.636 176.551 568.319 176.163 566.103 175.853C563.411 175.388 563.727 175.078 568.636 173.606C573.861 172.056 574.02 171.979 570.22 171.979C567.053 171.979 566.103 171.591 565.786 170.041C565.628 168.956 566.736 167.794 568.319 167.329C570.695 166.554 570.695 166.554 567.844 166.709C565.628 166.864 564.677 166.554 564.836 165.547C564.994 164.849 564.519 164.229 563.727 164.229C562.144 164.229 561.827 165.237 562.302 168.104C562.619 169.654 562.302 169.809 560.244 168.956C558.185 168.181 557.869 168.259 558.66 169.654C559.135 170.506 560.086 171.436 560.877 171.669C563.569 172.444 562.302 173.374 559.135 172.986C556.602 172.676 556.127 172.831 556.919 173.839C557.394 174.536 558.502 175.078 559.294 175.078C560.086 175.078 560.719 175.388 560.719 175.853C560.719 176.241 559.135 176.628 557.235 176.628C554.068 176.628 554.068 176.706 556.444 178.023C559.294 179.573 560.086 180.891 557.71 180.116C556.919 179.883 555.81 180.038 555.177 180.503C554.702 180.891 555.019 181.278 555.81 181.278C556.76 181.278 557.552 181.666 557.552 182.131C557.552 182.595 556.285 182.75 554.385 182.44C551.218 181.976 551.06 182.905 553.593 186.005C554.068 186.78 553.752 187.555 552.802 187.865C551.693 188.175 550.585 187.788 550.11 186.858C549.635 185.85 548.368 185.463 547.101 185.695C544.41 186.16 544.251 185.618 546.626 183.448C547.893 182.286 547.893 181.976 546.626 182.363C543.301 183.448 544.885 180.581 548.368 179.418C550.585 178.643 551.06 178.178 549.635 178.178C548.051 178.178 548.368 177.791 550.585 177.016C553.435 175.853 553.118 175.853 546.943 176.241C539.026 176.861 538.076 175.931 544.41 173.684L548.526 172.211L544.251 171.669L539.976 171.126L542.826 168.646C544.41 167.251 546.468 165.857 547.26 165.547C548.21 165.159 547.26 165.004 545.36 165.237C542.509 165.547 541.718 165.314 541.718 164.152C541.718 163.377 541.243 162.757 540.609 162.757C537.442 162.989 537.126 162.524 539.343 160.819C541.559 159.192 541.559 158.959 539.501 158.572C537.917 158.262 537.284 157.332 537.759 155.705C538.076 154.465 537.601 153.38 536.651 153.38C535.859 153.38 535.384 153.922 535.859 154.542C536.492 155.162 536.176 155.86 535.542 156.015C534.751 156.247 534.434 158.029 534.751 159.967C535.226 163.609 534.276 164.152 530.792 162.447C529.05 161.672 529.05 161.827 530.475 163.222C531.425 164.152 531.742 165.392 531.267 166.012C530.792 166.631 531.109 167.406 532.059 167.716C534.751 168.491 534.117 169.654 531.109 169.654C529.684 169.654 529.05 169.886 529.525 170.119C530 170.429 529.842 171.281 529.05 172.056C527.942 172.986 528.1 173.529 529.525 173.761C530.95 174.071 530.95 174.381 529.209 174.923C527.308 175.543 527.783 176.086 532.059 177.791C534.751 178.953 536.651 180.116 536.176 180.348C535.701 180.581 533.801 180.038 531.742 179.186C523.983 175.776 520.5 176.551 524.458 180.813C526.992 183.525 525.092 186.393 519.708 187.71C515.274 188.795 513.216 188.718 513.216 187.4C513.216 187.09 514.641 186.625 516.224 186.315C517.808 186.083 519.708 185.308 520.183 184.533C520.658 183.835 521.608 182.75 522.083 182.208C523.191 180.968 518.6 181.821 513.216 183.758C509.574 185.153 509.257 185.23 508.307 183.835C507.674 182.905 508.307 182.208 510.207 181.743C511.949 181.356 513.691 180.193 514.166 179.263C514.641 178.256 516.383 177.248 517.966 177.016C522.4 176.318 524.933 174.536 521.45 174.536C520.025 174.536 518.441 174.768 517.966 175.078C517.491 175.388 514.324 175.853 510.841 176.163C504.982 176.628 504.824 176.551 507.515 175.543C509.099 174.846 510.999 174.226 511.474 174.149C511.949 173.994 514.166 172.909 516.383 171.746L520.341 169.499L515.591 170.119C513.057 170.429 509.891 170.971 508.782 171.436C504.19 173.219 505.14 170.971 510.049 168.491C515.433 165.779 515.116 164.849 509.416 166.941C507.674 167.561 505.14 168.104 503.874 168.104C501.34 168.104 508.149 164.539 514.008 162.757C516.699 161.904 516.383 161.827 510.999 162.214C505.932 162.524 504.19 162.292 501.815 160.974C498.173 158.959 498.173 158.107 501.815 157.487C503.24 157.177 506.249 156.325 508.466 155.55L512.424 154L507.991 154.542C505.615 154.852 503.715 154.775 503.715 154.387C503.715 154 501.34 153.845 498.648 154L493.423 154.387L497.223 152.295C499.44 151.21 502.607 150.28 504.349 150.202C506.249 150.202 506.882 149.97 505.774 149.815C504.665 149.583 504.349 148.885 504.665 148.343C505.457 147.49 504.349 147.335 499.44 147.723C493.581 148.188 493.423 148.188 496.273 146.638C499.282 144.933 500.073 143.228 497.065 144.7C494.056 146.173 492.631 145.785 492.631 143.693C492.631 142.685 493.898 141.445 495.481 141.058C498.015 140.283 498.015 140.283 495.481 140.206C492.156 140.206 491.681 138.966 494.69 138.423C495.798 138.191 495.323 137.958 493.581 137.958C491.364 137.881 490.889 137.493 491.681 135.943C492.314 134.858 491.998 133.308 491.048 132.456C489.939 131.449 489.939 130.829 491.206 130.441C492.473 130.054 492.473 129.744 491.048 129.356C488.039 128.426 484.714 130.209 486.456 131.759C487.089 132.456 487.406 133.231 486.772 133.463C486.297 133.696 486.614 135.013 487.564 136.253C488.514 137.571 488.673 138.656 487.881 138.656C487.089 138.656 486.297 139.586 485.981 140.748L485.506 142.918L482.022 141.213C480.122 140.283 478.064 139.741 477.747 140.128C477.272 140.438 479.33 141.755 482.339 142.995C485.347 144.235 487.881 145.475 487.881 145.785C487.881 146.715 481.864 146.56 480.755 145.63C479.647 144.778 476.797 145.32 476.797 146.405C476.797 146.793 478.222 147.335 479.964 147.568C481.705 147.878 482.814 148.42 482.339 148.808C481.705 149.195 482.181 149.505 483.131 149.505C485.981 149.505 486.772 151.752 484.239 152.915C482.181 154 481.547 153.922 478.38 152.605C473.472 150.512 472.363 150.667 476.163 152.76C483.289 156.79 486.456 159.579 484.081 159.579C482.814 159.579 481.389 159.269 480.755 158.804C480.28 158.417 478.855 158.262 477.589 158.494C476.48 158.727 474.105 158.184 472.522 157.332C469.513 155.55 467.296 155.24 467.296 156.48C467.296 156.945 469.038 157.642 471.096 158.107C473.155 158.572 475.688 159.812 476.638 160.819C478.064 162.447 477.905 162.679 474.738 162.757C472.838 162.757 472.205 162.989 473.313 163.222C475.688 163.687 483.131 167.174 483.131 167.794C483.131 168.026 481.547 167.949 479.805 167.716C477.905 167.406 475.372 167.096 474.263 167.019C473.155 166.941 471.571 166.631 471.096 166.321C469.038 165.392 467.296 165.779 467.296 167.096C467.296 167.871 470.146 169.499 473.63 170.661C479.964 172.831 481.547 174.536 478.38 175.466C477.43 175.776 475.688 175.543 474.422 175.078C473.155 174.536 472.047 174.381 472.047 174.613C472.047 174.923 470.621 174.768 469.038 174.381C466.663 173.761 465.871 173.839 465.238 175.001C464.921 175.698 465.554 177.016 466.663 177.791C469.671 179.806 469.355 180.503 465.396 180.503H462.071L465.713 182.44C469.196 184.223 469.196 184.378 466.346 184.92C464.763 185.153 462.388 186.083 461.279 186.858C460.171 187.633 458.112 188.253 456.687 188.253C454.629 188.253 454.47 188.098 456.371 186.935C458.112 185.928 458.112 185.618 456.687 185.385C453.679 184.843 454.154 182.983 457.796 181.511C459.537 180.736 460.962 179.728 460.962 179.108C460.962 178.411 459.854 178.256 457.796 178.566C456.054 178.876 454.629 178.721 454.629 178.256C454.629 177.791 456.054 176.706 457.796 175.853C461.596 173.994 461.754 173.529 458.429 173.529C456.371 173.529 456.687 172.986 459.854 170.894C463.654 168.491 463.813 168.259 461.121 167.871C459.537 167.716 457.004 167.871 455.42 168.259C451.462 169.421 448.612 167.794 451.145 165.779C452.729 164.462 452.729 164.229 450.67 164.229C447.978 164.229 449.087 161.982 452.57 160.664C454.312 159.889 454.312 159.657 452.254 159.269C450.828 159.037 449.72 158.029 449.878 157.1C450.037 156.092 450.037 154.62 449.878 153.767C449.72 152.527 449.087 152.76 447.345 154.775C446.078 156.17 445.603 157.72 446.078 158.184C446.87 158.727 446.237 158.882 444.653 158.572C441.486 157.952 441.17 159.037 443.861 161.129C446.237 162.989 444.495 163.997 441.17 162.679C439.744 162.137 438.319 161.904 437.844 162.137C436.578 162.757 443.228 167.329 445.286 167.329C446.237 167.329 446.553 167.639 446.078 168.026C445.603 168.414 443.545 168.569 441.486 168.336C439.428 168.104 438.794 168.259 439.744 168.646C440.694 168.956 441.961 170.041 442.595 171.049C443.703 172.676 443.545 172.676 439.269 171.979C434.836 171.204 434.836 171.281 438.478 172.444C442.595 173.994 443.386 176.861 439.269 176.086C437.528 175.776 437.053 175.853 437.844 176.473C438.478 177.016 438.003 177.403 436.578 177.403C435.152 177.403 434.044 176.861 434.044 176.241C434.044 175.543 433.094 175.311 431.352 175.621C429.61 175.931 429.452 176.241 430.561 176.473C431.669 176.628 432.461 177.171 432.461 177.636C432.461 178.101 434.361 179.418 436.736 180.658C441.645 183.138 440.694 184.378 435.311 182.518C433.411 181.821 431.194 181.278 430.561 181.278C428.819 181.278 430.877 185.385 433.411 186.78C436.894 188.64 436.261 190.345 432.619 188.718C429.61 187.4 426.444 188.175 428.502 189.725C429.927 190.965 426.444 191.507 422.96 190.578C419.793 189.725 419.793 189.725 422.802 187.633C426.444 184.998 425.652 181.123 421.535 181.898C419.318 182.286 419.318 182.131 421.06 181.123C422.643 180.193 422.643 179.728 421.377 179.341C420.268 179.031 419.793 177.946 420.11 177.016C420.743 175.776 420.268 175.311 418.685 175.621C416.31 176.086 415.835 175.001 418.21 173.839C419.16 173.374 419.001 172.676 418.051 171.979C416.626 170.971 416.468 171.049 417.26 172.134C417.735 172.909 417.418 173.529 416.626 173.529C415.676 173.529 415.043 174.226 415.043 175.156C415.043 176.163 414.409 176.551 413.143 176.163C411.559 175.698 411.559 175.853 413.143 176.783C415.201 178.101 414.093 180.813 411.718 180.038C410.926 179.806 410.293 180.193 410.293 180.891C410.293 181.821 409.501 182.053 407.759 181.743C405.542 181.356 405.384 181.433 407.126 182.44C408.234 183.06 408.551 183.603 407.759 183.603C407.126 183.603 407.917 184.068 409.659 184.688C411.401 185.308 412.034 186.083 411.243 186.47C410.451 186.78 409.501 186.625 409.184 186.083C408.076 184.688 405.226 184.998 405.701 186.47C406.176 188.485 403.959 190.578 401.425 190.578C399.842 190.578 399.367 190.035 400.159 188.563C401.742 185.618 397.942 184.765 393.35 187.168C389.074 189.415 387.649 189.57 388.916 187.478C389.708 186.315 389.233 185.928 387.016 185.928C384.641 185.928 384.483 185.773 386.541 185.153C387.808 184.765 388.283 184.223 387.808 183.913C386.383 183.293 391.133 180.968 395.25 180.116C400.317 179.186 395.25 178.798 389.074 179.651C382.741 180.426 381.949 179.961 386.224 178.023C389.866 176.318 392.875 174.458 392.875 173.916C392.875 173.296 385.433 173.839 384.008 174.536C381.791 175.543 380.524 175.078 381.316 173.529C381.791 172.676 382.741 171.979 383.532 171.979C384.324 171.979 384.958 171.591 384.958 171.204C384.958 170.739 383.532 170.429 381.791 170.429C377.515 170.429 377.832 168.569 382.266 167.484C385.749 166.631 385.749 166.631 381.632 166.631C377.832 166.554 377.357 166.166 376.249 162.834C375.14 159.579 374.982 159.424 373.715 161.052C372.923 162.059 372.607 163.609 373.24 164.462C374.032 165.702 373.715 165.934 371.657 165.547C368.648 164.927 368.331 166.012 371.023 168.104C373.557 170.041 371.815 170.816 367.381 169.654C364.373 168.801 364.056 168.879 364.848 170.041C365.481 170.739 365.956 171.746 365.956 172.366C365.956 172.909 367.381 173.529 369.123 173.761C370.865 173.994 372.29 174.536 372.29 175.001C372.29 176.086 367.54 176.086 362.156 175.078C356.931 174.149 356.772 175.311 361.998 176.473C366.748 177.558 367.223 178.953 362.789 178.953C359.464 178.953 358.514 180.116 361.206 180.891C362.156 181.123 362.789 182.053 362.789 182.905C362.789 184.223 362.314 184.3 359.464 183.525C354.872 182.363 352.339 183.68 354.872 185.928C356.772 187.71 355.981 189.803 353.289 189.803C352.497 189.803 351.705 189.26 351.705 188.64C351.705 188.02 350.597 187.478 349.33 187.478C347.905 187.478 347.113 186.858 347.43 185.695C347.588 184.378 346.955 184.068 344.58 184.223C342.046 184.378 342.521 183.913 346.955 181.976C352.497 179.573 352.497 179.573 348.222 180.038C343.155 180.581 342.68 180.038 346.638 177.946C349.647 176.241 350.28 176.318 339.196 177.791C336.663 178.178 336.188 177.868 336.504 176.473C336.663 175.466 337.454 174.149 338.246 173.529C339.196 172.754 338.88 172.599 336.663 172.986C334.446 173.451 333.971 173.219 334.604 171.591C335.079 170.506 334.763 169.654 333.971 169.654C333.179 169.654 333.021 168.956 333.496 168.104C333.971 167.251 333.813 166.554 333.021 166.554C330.962 166.554 329.221 169.964 330.646 171.669C331.437 172.676 331.121 172.909 329.062 172.521C325.42 171.824 324.154 173.296 327.479 174.149C329.854 174.846 330.012 175.156 327.954 176.938C326.529 178.256 324.47 178.953 321.937 178.953C318.137 178.953 317.978 178.953 320.987 180.271C322.57 181.046 325.104 182.363 326.37 183.138C328.904 184.765 329.379 184.765 320.037 182.983C317.978 182.595 317.978 182.75 319.878 183.835C322.254 185.308 322.254 185.23 317.662 185.54C315.92 185.695 313.228 186.005 311.803 186.315C307.686 187.09 308.161 184.688 312.12 183.448C316.236 182.131 316.236 180.503 311.803 180.503C308.636 180.503 308.636 180.426 311.011 179.108C314.495 177.248 314.336 176.628 310.378 176.628C306.102 176.628 306.894 174.149 311.803 173.141C313.703 172.754 315.286 172.134 315.286 171.901C315.286 170.971 309.744 170.351 309.269 171.126C308.478 172.289 305.944 172.211 303.252 170.816C301.194 169.809 301.669 169.499 306.577 167.949C314.02 165.547 313.545 164.849 304.994 165.392C297.235 165.857 297.235 165.779 299.294 162.137C300.402 160.277 300.244 159.734 298.819 160.044C297.71 160.277 296.76 159.967 296.602 159.424C296.602 158.882 295.81 156.635 295.018 154.542C293.435 150.59 292.643 150.977 292.802 155.55C292.802 157.565 292.327 158.029 290.426 157.72C288.843 157.41 288.368 157.565 288.843 158.184C292.168 162.137 292.168 162.214 289.476 161.672C287.735 161.362 287.26 161.517 287.893 162.369C288.843 163.687 286.626 163.764 283.618 162.447C282.034 161.827 282.193 162.059 283.776 163.067C288.843 166.166 289.16 166.864 285.518 166.399C283.618 166.089 282.034 166.166 282.034 166.554C282.034 166.864 283.459 167.329 285.201 167.561C286.943 167.794 288.368 168.336 288.368 168.879C288.368 169.344 287.735 169.499 286.785 169.266C285.993 169.034 284.093 169.111 282.509 169.499C280.292 170.196 280.292 170.274 283.301 170.739C285.201 171.049 286.785 171.824 286.785 172.444C286.785 173.839 285.993 173.839 281.243 172.289C277.284 171.049 276.334 171.436 277.126 173.839C277.284 174.149 276.651 174.923 275.7 175.388C274.909 175.931 274.592 176.551 275.067 176.783C275.542 177.016 273.642 177.558 271.109 178.023C268.417 178.488 266.2 178.721 266.2 178.488C266.2 178.333 268.417 176.241 271.109 173.916C275.7 169.964 275.7 168.414 271.267 170.584C270.158 171.126 269.367 171.204 269.367 170.894C269.367 170.506 268.417 170.661 267.15 171.126C265.567 171.746 264.616 171.824 263.825 171.204C263.35 170.816 263.666 170.429 264.775 170.429C266.2 170.429 266.2 170.196 264.775 169.344C262.716 168.104 263.35 167.794 269.683 167.019C272.534 166.709 273.8 166.089 273.642 165.082C273.484 163.687 273.325 163.687 267.15 165.004C259.074 166.786 255.908 166.321 259.233 163.842C260.5 162.834 263.191 161.827 265.091 161.594C268.258 161.129 268.417 161.052 265.883 160.277C262.083 159.269 262.241 158.417 266.675 157.41C269.683 156.557 269.367 156.48 263.508 156.712C257.808 156.867 256.699 156.635 256.699 155.55C256.699 154.775 257.491 154.155 258.441 154.155C260.183 154.155 266.2 151.287 266.2 150.435C266.2 150.28 264.141 150.28 261.608 150.512C257.966 150.9 257.174 150.745 257.333 149.66C257.333 148.963 258.758 147.878 260.341 147.335C264.141 145.863 263.666 145.01 259.074 145.243C256.541 145.398 255.116 145.088 255.116 144.39C255.116 143.77 256.699 143.305 258.758 143.305C261.45 143.305 261.766 143.15 260.024 142.608C258.758 142.22 256.858 142.065 255.591 142.298C254.482 142.53 253.532 142.375 253.532 141.91C253.532 141.523 254.799 140.903 256.224 140.671C258.441 140.206 258.441 139.973 255.433 138.966C253.532 138.346 252.266 137.416 252.741 137.028C253.374 136.641 252.899 136.331 252.107 136.331C251.157 136.331 250.366 135.168 250.366 133.773C250.207 131.681 250.049 131.526 248.624 132.689C247.674 133.463 247.199 134.781 247.674 135.633C248.149 136.563 247.674 137.106 246.249 137.106C244.348 137.106 244.348 137.416 246.407 138.966C248.465 140.438 248.465 140.903 246.882 141.213C245.615 141.523 245.457 141.833 246.407 142.298C249.89 143.693 248.94 144.855 244.982 144.08C241.498 143.46 241.182 143.615 241.657 145.01C241.973 145.863 243.082 147.025 244.19 147.645C245.615 148.498 245.457 148.73 242.923 148.73C241.34 148.73 239.123 148.343 238.015 147.8C233.898 145.785 235.006 147.8 239.281 150.28C246.407 154.387 245.457 155.317 237.065 152.682C229.623 150.28 228.989 151.752 235.956 154.93C243.398 158.339 244.032 159.579 238.648 159.579C235.798 159.579 234.531 159.114 234.214 157.874C233.898 156.945 232.789 156.092 231.523 155.86C228.356 155.317 231.048 158.882 235.481 160.897C240.865 163.299 240.39 164.539 234.531 163.919C229.306 163.454 228.197 164.462 232.631 165.702C234.69 166.321 234.69 166.476 232.948 166.554C231.206 166.554 231.206 166.786 232.631 167.484C235.165 168.724 235.006 169.654 232.156 169.654C230.731 169.654 230.256 170.119 230.731 170.816C231.681 171.901 229.939 172.289 225.506 172.056C224.556 171.979 223.289 172.289 222.655 172.754C221.072 174.071 218.697 173.606 218.697 171.979C218.697 171.126 219.647 170.429 220.755 170.429C223.13 170.429 228.831 167.406 227.564 166.786C227.089 166.554 225.664 166.786 224.397 167.251C220.597 168.801 218.063 167.484 221.23 165.702C222.655 164.927 223.13 164.229 222.18 164.229C221.23 164.229 219.964 164.539 219.489 165.004C218.063 166.166 215.53 165.934 215.53 164.694C215.53 164.074 217.113 162.989 219.013 162.369C223.289 160.897 221.864 159.889 217.113 161.129C212.363 162.369 211.413 161.594 215.372 159.502C219.805 157.177 219.489 156.48 214.58 156.48C211.255 156.48 210.621 156.17 211.255 154.93C211.73 153.922 211.255 153.38 209.83 153.38C206.821 153.38 206.979 152.605 210.146 151.52C212.205 150.745 211.73 150.59 206.821 150.512C202.071 150.435 201.437 150.59 203.021 151.597C204.604 152.45 204.604 152.837 203.021 153.38C201.437 153.845 201.596 154.155 203.813 154.775C206.663 155.55 206.663 155.627 203.179 157.1L199.696 158.572L203.179 159.889C206.663 161.129 206.663 161.129 199.696 160.742C192.728 160.277 192.57 160.354 195.737 161.672C199.221 163.222 200.012 167.406 196.845 167.871C195.579 168.104 195.262 167.794 196.054 166.941C196.845 165.779 196.529 165.702 193.52 166.476C190.353 167.329 190.195 167.251 191.145 165.392C191.62 164.307 191.303 162.989 190.195 162.292C188.77 161.439 189.087 160.897 191.62 159.812C196.212 157.952 195.737 157.1 190.828 158.029C183.07 159.502 183.228 158.804 190.987 155.24L198.904 151.597L192.095 152.14C185.445 152.605 185.286 152.605 187.186 150.9C188.137 149.892 190.512 148.498 192.412 147.8C195.737 146.483 195.579 146.483 190.67 147.103C187.82 147.49 184.811 148.033 184.02 148.265C183.228 148.498 182.911 148.033 183.386 147.18C183.861 146.328 183.386 145.63 182.436 145.63C179.744 145.63 181.169 143.77 184.336 143.15C187.345 142.53 188.137 140.671 185.128 141.136C184.02 141.368 181.961 140.903 180.378 140.283C177.686 139.198 177.686 139.043 181.011 137.338C184.02 135.711 184.178 135.556 181.644 135.556C179.586 135.556 179.111 135.168 179.744 134.316C180.378 133.386 180.061 133.154 178.319 133.541C176.102 133.928 175.152 133.154 175.786 131.449C175.944 131.061 175.152 130.906 174.044 131.061C172.936 131.294 172.144 132.456 172.144 133.851C172.46 136.021 172.144 136.176 169.452 135.478C165.493 134.471 165.652 135.711 169.61 136.951C173.569 138.113 173.727 139.431 170.085 139.431C167.394 139.508 167.394 139.508 170.085 140.283C173.094 141.136 173.727 143.305 171.035 143.305C169.769 143.305 169.927 143.693 171.194 144.468C174.202 146.25 171.985 146.715 167.394 145.243L163.277 143.925L165.493 146.018C166.76 147.258 168.819 148.498 169.927 148.808C171.51 149.35 171.51 149.505 169.769 149.505C168.502 149.505 165.493 148.575 163.118 147.49C159.635 145.863 158.843 145.708 158.051 146.715C157.418 147.413 158.368 148.343 160.426 149.04C162.168 149.66 163.118 150.512 162.485 151.055C161.693 151.675 160.585 151.597 158.526 150.667C155.676 149.428 155.676 149.428 156.468 150.977C156.943 151.907 159.793 153.147 162.643 153.845C168.344 155.162 168.819 155.472 166.602 157.177C165.335 158.107 164.385 158.184 160.743 157.41C154.409 155.937 154.409 156.79 160.743 159.579C163.91 160.974 165.968 162.447 165.493 162.834C165.018 163.222 163.593 163.144 162.327 162.602C161.06 162.137 160.11 161.982 160.11 162.369C160.11 162.757 159.476 162.602 158.685 161.982C157.735 161.284 156.943 161.207 156.309 161.827C155.676 162.292 156.784 162.989 158.843 163.377C160.901 163.842 161.851 164.152 160.901 164.152C160.11 164.229 161.376 164.849 163.752 165.702C167.552 166.941 167.869 167.174 165.493 167.639C163.91 167.949 161.693 167.639 160.11 166.941C157.735 165.857 157.576 165.934 157.893 167.484C158.051 168.491 158.368 169.809 158.368 170.506C158.526 171.204 159.951 171.979 161.693 172.211C166.285 172.754 165.652 173.606 158.526 176.086C153.618 177.791 152.193 178.023 152.193 177.093C152.193 176.396 151.242 175.853 150.292 175.853C149.026 175.776 149.501 175.233 151.401 174.458C153.143 173.761 154.726 172.366 154.884 171.359L155.359 169.576L149.342 171.591C146.017 172.754 143.325 173.219 142.85 172.676C142.217 171.746 147.601 169.654 149.342 170.119C150.134 170.351 150.609 170.274 150.767 169.886C150.767 169.576 151.084 168.491 151.242 167.484C151.876 165.159 149.342 164.462 146.65 166.244C144.434 167.639 144.434 167.639 144.275 166.321C144.275 165.469 145.7 164.694 147.442 164.462C149.184 164.229 150.609 163.687 150.609 163.299C150.609 162.834 148.867 162.757 146.65 162.989C144.434 163.299 142.692 163.299 142.692 162.989C142.692 162.214 147.126 160.354 149.342 160.277C150.451 160.277 149.976 159.967 148.234 159.657C146.492 159.269 144.275 159.347 143.167 159.734C142.059 160.122 140.95 160.122 140.475 159.657C139.842 159.269 141.108 158.339 143.009 157.72C145.859 156.712 146.017 156.48 143.8 156.48C140.317 156.48 140.317 155.085 143.8 153.225C146.334 151.83 146.334 151.83 143.8 152.295C141.742 152.682 141.108 152.295 141.108 150.745C141.108 149.66 140.317 148.73 139.367 148.73C138.1 148.73 138.1 148.42 139.367 147.723C140.633 146.948 140.475 146.328 139.05 145.398C137.625 144.468 136.833 144.39 135.566 145.088C133.35 146.328 133.191 149.737 135.408 150.435C138.417 151.365 135.091 151.985 131.766 151.055C127.174 149.892 127.649 150.9 132.716 153.07C137.308 155.007 136.675 156.635 132.083 154.852C129.391 153.845 129.391 153.845 131.608 155.162C134.616 157.1 135.725 160.354 132.875 158.959C129.866 157.487 128.124 157.874 130.024 159.579C132.4 161.827 130.658 162.757 125.907 161.904C119.732 160.742 119.574 160.974 124.799 163.377C130.816 166.166 132.4 168.104 128.758 168.181C127.174 168.181 126.858 168.414 128.124 168.646C130.499 169.111 130.658 170.429 128.283 170.429C127.333 170.429 125.591 169.886 124.166 169.266C122.899 168.646 121.157 168.259 120.524 168.491C118.624 169.034 120.365 171.436 123.216 172.211C125.591 172.909 126.066 175.853 123.691 175.853C122.899 175.853 122.107 175.466 122.107 174.923C122.107 174.458 121.632 174.303 121.157 174.536C120.524 174.846 120.999 175.543 122.107 176.241C124.799 177.791 123.057 179.651 119.099 179.496C117.199 179.418 115.774 179.108 115.774 178.798C115.774 178.488 114.823 178.178 113.557 178.178C112.448 178.178 111.023 177.403 110.39 176.396C109.123 173.916 109.123 173.529 111.657 173.529C112.923 173.529 114.19 172.986 114.823 172.366C115.298 171.591 114.665 171.204 112.765 171.204C110.548 171.204 109.915 170.816 110.548 169.654C111.023 168.801 111.973 168.104 112.765 168.104C113.557 168.104 114.19 167.716 114.19 167.329C114.19 166.864 112.765 166.554 110.865 166.554C108.648 166.554 107.856 166.166 108.331 165.392C108.965 164.772 108.49 164.074 107.698 163.764C106.748 163.532 106.431 162.369 107.065 161.284C108.015 159.502 107.698 159.424 105.481 160.354C104.056 160.897 103.264 161.827 103.739 162.447C104.214 162.989 103.898 163.454 102.948 163.454C101.998 163.454 101.523 163.997 102.156 164.617C102.631 165.314 101.998 165.779 100.414 165.779C98.3557 165.779 98.3557 166.012 99.9391 166.941C101.523 167.871 101.364 168.104 99.1474 168.104C96.4556 168.104 96.4556 168.181 98.9891 169.576C101.048 170.739 101.206 171.126 99.6225 171.436C98.039 171.669 98.3557 172.211 100.731 173.529C103.264 175.001 103.423 175.233 101.206 174.846C99.6225 174.536 98.3557 174.923 97.8807 175.853C97.4056 176.938 95.8222 177.248 92.1803 177.248C86.4799 177.171 86.0049 176.473 90.2802 174.536C92.972 173.296 94.3971 171.281 93.7637 169.421C93.7637 169.034 92.497 169.344 91.0719 169.964C88.3801 171.359 84.1048 171.591 84.1048 170.429C84.1048 169.964 85.2132 169.654 86.6383 169.654C87.905 169.654 88.6968 169.344 88.2217 169.034C87.7467 168.646 88.8551 167.794 90.5969 167.096C94.7138 165.314 94.5555 163.919 90.4385 165.004C88.6968 165.469 86.4799 165.624 85.6882 165.392C83.9464 164.849 86.955 161.129 90.4385 159.812C92.497 159.037 92.1803 158.882 88.5384 158.804C86.1633 158.804 83.7881 159.114 83.3131 159.579C82.0463 160.587 79.3545 160.587 79.3545 159.657C79.3545 159.269 80.4629 158.417 81.7296 157.72C85.0549 156.092 84.7382 154.93 80.7796 154.93C77.771 154.93 77.6127 154.775 79.5128 153.69C81.413 152.527 81.2546 152.45 78.0877 152.915C74.6042 153.457 73.1791 152.372 76.1876 151.442C77.4544 151.055 77.4544 150.59 76.346 149.97C75.3959 149.428 75.2376 148.73 75.8709 148.42C76.5043 148.11 76.0293 147.955 74.7625 148.11C73.3374 148.265 72.5457 147.568 72.3874 146.25C72.229 145.088 71.279 143.693 70.3289 143.228C68.9038 142.53 68.5871 142.918 69.0622 144.778C69.5372 146.328 69.0622 147.18 67.7954 147.18C66.5287 147.18 66.5287 147.413 67.4787 147.8C69.2205 148.42 69.5372 150.202 68.1121 151.442C67.6371 151.83 67.3204 153.225 67.4787 154.542C67.6371 156.945 65.8953 158.804 63.2034 158.804C62.4117 158.804 62.2534 158.107 62.7284 157.255C63.5201 156.17 63.0451 155.705 61.3033 155.705C58.2948 155.705 57.9781 154.465 60.8283 153.612C61.7783 153.302 63.8368 152.372 65.1036 151.52C67.3204 150.125 67.162 150.125 62.2534 150.59C57.028 151.21 54.8112 149.892 60.0366 149.273C62.5701 148.963 62.5701 148.885 60.0366 148.808C56.078 148.73 56.3947 147.18 60.1949 147.18C61.9367 147.18 63.8368 146.793 64.3118 146.328C65.1036 145.785 63.6785 145.63 60.3533 145.785C54.3362 146.018 52.1194 144.468 57.1864 143.693C59.7199 143.305 60.1949 142.918 58.9282 142.298C57.8198 141.755 56.553 141.833 54.4945 142.608C51.8027 143.615 51.8027 143.615 54.4945 141.6C57.6614 139.121 57.9781 138.346 55.2863 139.121C54.0195 139.508 53.8612 139.121 54.4945 137.958C55.1279 136.718 54.6529 136.331 52.9111 136.486C51.486 136.641 50.0609 136.253 49.7442 135.711C49.2692 135.246 50.0609 134.781 51.486 134.781C52.9111 134.781 54.0195 134.393 54.0195 133.928C54.0195 133.463 52.5944 133.308 50.8526 133.618C47.2107 134.161 46.8941 133.773 49.2692 131.604C50.536 130.441 50.3776 129.976 48.6358 129.666C46.8941 129.356 46.419 128.581 47.0524 127.341C47.8441 126.024 47.3691 125.481 45.6273 125.481C43.8855 125.481 43.4105 126.179 43.5688 127.806ZM12.8502 158.029C12.8502 158.417 12.5335 158.804 12.2168 158.804C11.7418 158.804 10.9501 158.417 10.475 158.029C10 157.565 10.3167 157.255 11.1084 157.255C12.0585 157.255 12.8502 157.565 12.8502 158.029Z" fill="#00290C"/>
<path d="M1332.87 100.718C1332.7 102.263 1332.01 102.746 1330.64 102.263C1329.1 101.683 1329.1 101.973 1330.64 103.132C1332.01 104.001 1332.36 105.257 1331.67 105.933C1330.81 106.609 1330.47 108.444 1330.81 109.893C1331.16 112.307 1330.81 112.597 1327.9 112.114C1325.16 111.631 1324.47 111.824 1324.99 113.176C1325.33 114.142 1325.67 114.915 1325.84 114.915C1326.01 114.915 1326.36 115.88 1326.87 117.039C1327.73 119.743 1324.81 120.806 1321.04 119.164C1318.3 117.908 1318.3 118.005 1320.87 119.743C1323.27 121.482 1323.79 126.504 1321.73 127.759C1321.21 127.952 1319.67 127.663 1318.13 126.987C1314.01 125.055 1313.5 126.407 1317.27 129.208C1319.16 130.56 1320.7 132.492 1320.7 133.554C1320.7 135.968 1316.41 136.934 1313.84 135.196C1312.81 134.52 1310.24 133.747 1308.19 133.361L1304.42 132.878L1308.19 134.52C1311.61 136.065 1318.99 142.922 1318.99 144.564C1318.99 145.047 1317.44 145.336 1315.39 145.336C1313.5 145.336 1312.3 145.723 1312.99 146.205C1313.5 146.785 1312.47 147.558 1310.93 148.137C1308.01 149.006 1308.19 149.296 1312.64 151.807C1318.13 155.187 1318.47 156.346 1313.67 155.477C1310.59 154.897 1310.41 154.994 1311.96 156.732C1314.7 159.63 1314.53 161.272 1311.44 159.919C1307.84 158.181 1306.99 160.595 1310.07 163.976C1311.44 165.424 1312.13 166.97 1311.61 167.259C1309.73 168.225 1304.24 166.583 1304.07 164.941C1303.56 161.272 1302.7 159.34 1301.16 158.76C1300.47 158.374 1301.16 157.022 1302.7 155.573C1305.44 153.256 1305.44 153.062 1302.87 153.062C1299.1 153.062 1297.22 150.165 1300.3 149.103C1302.36 148.33 1302.36 148.137 1300.3 147.364C1298.93 146.882 1298.42 145.819 1299.27 144.371C1300.13 142.922 1299.79 142.439 1298.76 142.825C1296.7 143.501 1294.3 140.025 1295.84 138.576C1297.22 137.224 1295.16 133.747 1292.93 133.747C1291.9 133.747 1291.9 134.327 1293.27 135.196C1294.99 136.355 1294.82 136.741 1292.93 137.127C1291.39 137.514 1290.53 138.866 1290.7 140.604C1290.87 142.149 1290.36 143.694 1289.5 143.984C1288.82 144.274 1288.47 144.853 1288.99 145.336C1289.5 145.723 1290.19 147.654 1290.53 149.586C1291.22 152.58 1290.87 153.062 1287.96 153.062C1285.04 153.062 1284.7 153.449 1285.73 155.187C1286.24 156.443 1287.62 157.602 1288.3 157.698C1289.16 157.891 1289.5 158.471 1288.99 158.857C1288.47 159.34 1286.76 159.437 1285.22 159.147C1282.3 158.567 1282.47 159.726 1285.56 163.879C1287.1 166.004 1284.19 166.197 1280.59 164.169C1279.22 163.3 1277.67 163.106 1276.99 163.589C1276.47 164.072 1276.82 164.748 1277.67 165.135C1279.56 165.714 1284.7 171.219 1284.7 172.571C1284.7 172.957 1282.47 173.344 1279.9 173.344C1275.44 173.344 1275.1 173.633 1275.79 176.241C1276.47 179.235 1275.27 179.718 1271.16 178.269C1269.62 177.69 1269.44 177.207 1270.82 176.82C1273.73 175.758 1271.33 174.406 1267.56 174.985C1262.93 175.661 1263.27 173.73 1267.9 172.281C1270.47 171.509 1271.16 170.929 1269.62 170.639C1267.9 170.35 1268.07 169.77 1270.47 168.322C1273.56 166.39 1273.56 166.39 1268.42 166.97C1263.96 167.549 1263.1 167.356 1262.93 165.617C1262.76 164.555 1263.27 163.879 1263.96 164.072C1264.64 164.362 1266.7 164.072 1268.42 163.396C1271.16 162.141 1271.16 162.044 1268.42 160.499C1266.36 159.243 1263.96 158.954 1259.67 159.437C1252.47 160.209 1252.13 158.857 1259.16 156.539C1262.76 155.284 1263.79 154.511 1262.42 154.028C1260.87 153.449 1260.87 152.773 1262.59 151.034C1266.36 147.171 1266.02 146.302 1261.22 147.364C1255.22 148.62 1253.84 148.427 1253.84 146.302C1253.84 145.24 1254.87 144.371 1256.24 144.371C1257.44 144.371 1259.5 143.791 1260.53 143.018C1262.24 141.86 1261.9 141.763 1258.82 142.149C1255.73 142.632 1255.39 142.439 1256.24 140.701C1257.27 139.059 1256.76 138.866 1253.84 139.252C1250.93 139.638 1250.59 139.445 1251.62 137.996C1252.3 136.934 1253.84 135.679 1255.22 135.099C1257.44 134.23 1257.27 133.94 1254.87 133.457C1253.16 133.071 1250.93 133.071 1250.07 133.457C1249.04 133.747 1248.7 133.554 1249.39 132.974C1249.9 132.395 1249.56 131.622 1248.53 131.333C1247.67 130.946 1247.16 130.077 1247.67 129.305C1248.19 128.532 1247.84 127.952 1246.99 127.952C1245.96 127.952 1245.44 127.663 1245.62 127.18C1245.79 126.794 1245.27 125.345 1244.59 123.896C1243.04 120.902 1239.27 121.289 1240.64 124.283C1241.33 125.635 1240.99 126.021 1239.1 125.635C1236.02 124.959 1236.02 126.89 1239.27 129.305C1242.53 131.719 1242.53 132.781 1239.27 132.781C1235.84 132.781 1236.02 133.65 1239.79 135.968C1242.7 137.803 1242.53 137.803 1237.22 137.224C1231.9 136.548 1231.73 136.548 1233.79 138.962C1234.99 140.314 1236.36 141.473 1237.22 141.473C1237.9 141.473 1238.42 141.86 1238.42 142.342C1238.42 143.791 1233.27 144.371 1229.67 143.405C1227.96 142.825 1226.42 142.729 1226.42 143.115C1226.42 144.177 1231.73 146.688 1235.5 147.558C1239.62 148.427 1239.1 150.358 1234.64 149.972C1232.76 149.779 1230.7 150.262 1230.36 150.841C1229.84 151.517 1230.36 152.097 1231.39 152.097C1234.3 152.097 1233.62 154.704 1230.53 155.38C1229.16 155.67 1226.42 155.477 1224.53 154.994C1222.65 154.415 1220.42 154.221 1219.56 154.511C1216.99 155.38 1217.5 158.857 1220.07 158.857C1222.99 158.857 1231.9 164.072 1230.36 164.941C1228.47 166.1 1223.33 165.714 1220.59 164.072C1217.33 162.334 1217.16 162.72 1219.9 166.1C1220.93 167.452 1222.47 168.515 1223.33 168.515C1224.02 168.515 1224.7 169.384 1224.7 170.35C1224.7 171.412 1225.56 172.571 1226.42 172.861C1229.67 174.02 1226.42 175.372 1222.99 174.309C1218.53 172.957 1215.62 173.054 1217.33 174.503C1219.22 176.241 1219.39 180.201 1217.67 182.518C1216.99 183.581 1216.3 183.871 1216.3 183.194C1216.13 182.615 1214.59 182.036 1212.7 182.036C1208.59 182.036 1208.42 181.263 1211.85 178.752C1214.93 176.434 1215.27 174.406 1212.36 176.048C1211.16 176.724 1209.27 177.207 1208.07 177.207C1204.47 177.207 1205.5 175.179 1209.27 174.599C1211.16 174.309 1212.19 173.73 1211.85 173.247C1211.33 172.861 1212.19 172.088 1213.73 171.605C1216.47 170.736 1216.3 170.639 1213.05 170.06C1210.99 169.674 1207.9 169.867 1205.85 170.446C1202.93 171.316 1202.42 171.219 1202.42 169.481C1202.42 168.322 1203.62 167.549 1205.33 167.549C1206.87 167.549 1207.56 167.259 1207.05 166.873C1206.36 166.583 1207.22 165.424 1208.76 164.459C1210.82 163.203 1210.99 162.334 1209.79 161.658C1208.42 160.885 1207.56 160.885 1206.87 161.658C1206.19 162.237 1204.47 162.72 1202.93 162.72C1200.53 162.72 1200.53 162.43 1203.27 160.789C1206.19 159.05 1206.19 158.857 1203.62 159.437C1201.9 159.726 1200.7 159.533 1200.7 158.954C1200.7 158.278 1201.9 157.602 1203.27 157.312C1206.7 156.539 1206.53 155.187 1202.93 154.801C1201.05 154.608 1198.99 152.58 1197.1 149.199C1194.87 145.24 1194.19 144.564 1194.02 146.495C1193.85 148.04 1192.99 149.199 1191.96 149.199C1190.59 149.199 1190.59 149.682 1192.13 150.648C1193.85 151.807 1193.85 152.097 1192.13 152.097C1190.76 152.097 1190.42 152.869 1191.1 154.415C1191.79 155.863 1191.27 156.926 1189.9 157.312C1188.53 157.602 1188.7 158.084 1190.93 158.857C1195.73 160.595 1194.53 162.044 1188.7 161.368C1183.39 160.789 1181.5 162.044 1186.13 163.106C1189.56 163.783 1189.39 166.39 1185.79 166.776C1183.05 167.066 1183.05 167.163 1185.79 168.708C1187.33 169.577 1188.7 170.543 1188.7 170.833C1188.7 171.992 1182.19 171.412 1181.33 170.157C1180.99 169.577 1180.13 169.287 1179.45 169.577C1178.93 169.867 1179.62 171.798 1181.16 173.827C1184.42 178.269 1182.19 180.49 1177.05 177.883C1175.33 177.014 1173.1 176.241 1172.07 176.241C1169.5 176.241 1171.56 180.104 1174.3 180.78C1178.25 181.649 1177.22 184.16 1173.27 183.484C1170.7 183.001 1170.19 183.194 1170.87 184.353C1171.39 185.223 1171.05 185.899 1170.02 185.899C1168.82 185.899 1169.16 186.864 1170.87 188.41C1173.45 190.534 1173.45 191.017 1171.39 191.79C1169.67 192.369 1168.3 191.79 1166.59 189.472C1163.33 185.029 1162.82 178.172 1165.9 177.496C1167.79 177.11 1167.96 176.724 1166.25 176.241C1164.7 175.661 1165.22 174.696 1168.13 172.281L1172.25 169.191L1166.76 169.77C1163.67 170.157 1161.27 170.06 1161.27 169.577C1161.27 169.094 1159.73 168.901 1157.85 169.191C1153.9 169.77 1153.22 168.032 1156.99 167.163C1158.36 166.873 1159.56 166.197 1159.56 165.617C1159.56 164.941 1158.53 164.845 1156.3 165.617C1152.02 166.873 1150.99 166.873 1150.99 165.617C1150.99 165.038 1152.19 164.652 1153.73 164.652C1155.45 164.652 1156.13 164.072 1155.45 163.203C1154.93 162.43 1156.13 161.175 1158.36 160.306L1161.96 158.857H1157.67C1155.27 158.857 1152.53 159.34 1151.5 159.919C1150.47 160.499 1148.76 160.692 1147.56 160.306C1146.19 159.823 1146.53 159.243 1148.76 158.278C1150.99 157.312 1151.16 157.022 1149.45 156.926C1147.9 156.926 1148.76 156.056 1151.67 154.511C1157.5 151.421 1157.33 150.745 1150.47 151.517C1143.1 152.29 1142.42 149.779 1149.62 147.654C1156.47 145.626 1155.62 144.95 1147.22 145.723L1140.19 146.399L1144.3 144.467C1146.7 143.308 1147.56 142.536 1146.02 142.439C1144.82 142.439 1144.13 141.86 1144.65 141.087C1145.16 140.314 1144.82 139.542 1143.62 139.252C1142.25 139.059 1142.76 138.286 1144.82 137.031C1147.73 135.389 1147.9 135.196 1145.33 134.906C1143.96 134.713 1142.08 133.168 1141.39 131.526L1140.19 128.435L1138.13 131.816C1136.93 133.844 1136.59 136.258 1137.45 137.9C1138.65 140.121 1138.3 140.604 1136.42 140.121C1132.99 139.445 1133.16 140.894 1136.42 142.439C1138.3 143.308 1138.65 143.984 1137.45 144.66C1136.25 145.336 1134.88 145.24 1133.33 144.564C1131.96 143.888 1130.59 143.694 1129.9 143.984C1128.7 144.66 1134.88 148.234 1137.45 148.234C1138.48 148.234 1138.99 148.813 1138.48 149.393C1138.13 150.165 1135.56 150.551 1131.96 150.358L1126.13 150.069L1132.82 153.352C1136.93 155.284 1138.99 157.022 1138.3 157.698C1137.45 158.567 1136.08 158.567 1133.85 157.891C1128.36 156.249 1126.65 156.732 1129.56 159.147C1130.93 160.402 1131.62 161.754 1131.1 162.044C1130.42 162.43 1131.28 162.913 1132.82 163.3C1136.76 164.169 1136.25 165.328 1131.45 166.004C1129.22 166.294 1125.96 166.873 1124.42 167.259C1122.19 167.646 1121.68 167.452 1122.19 166.487C1122.7 165.714 1121.85 164.555 1120.65 163.783C1118.59 162.72 1118.59 162.237 1120.65 160.885C1124.25 158.567 1125.45 154.994 1122.7 154.994C1121.33 154.994 1119.79 155.38 1119.28 155.96C1117.39 157.602 1114.48 157.022 1115.85 155.187C1116.53 154.318 1117.22 152.869 1117.22 152.097C1117.22 151.324 1118.08 150.358 1119.1 149.972C1120.13 149.489 1118.42 149.489 1115.16 149.875C1110.7 150.358 1109.5 150.165 1110.19 149.103C1110.53 148.33 1112.76 147.171 1115.16 146.592L1119.28 145.336H1114.13H1108.99L1113.79 143.598C1116.36 142.632 1117.9 141.473 1117.22 141.183C1116.7 140.797 1117.56 139.831 1119.45 138.962C1122.53 137.514 1122.53 137.514 1118.08 137.9C1115.5 138.093 1113.79 137.9 1114.3 137.514C1114.82 137.031 1113.96 136.644 1112.42 136.644C1110.36 136.644 1109.85 136.161 1110.53 135.099C1111.05 134.23 1111.56 133.361 1111.56 133.168C1111.56 132.974 1112.59 132.781 1113.96 132.781C1115.16 132.781 1116.7 131.719 1117.05 130.367C1117.73 128.435 1117.39 128.049 1115.16 128.435C1113.45 128.725 1110.7 128.339 1108.82 127.566C1105.56 126.117 1105.56 126.117 1108.99 124.669C1110.88 123.896 1111.73 123.124 1110.88 123.124C1110.02 123.124 1110.36 122.448 1111.56 121.675C1113.96 120.033 1112.42 118.198 1109.16 118.874C1106.42 119.454 1104.36 115.687 1106.25 113.562C1107.62 112.017 1105.9 107.671 1103.85 107.671C1103.16 107.671 1103.16 108.058 1103.85 108.54C1104.36 109.023 1104.02 109.699 1103.16 110.086C1102.13 110.375 1101.79 111.245 1102.48 112.017C1103.16 113.08 1102.48 113.273 1100.25 112.79C1097.16 112.21 1097.16 112.21 1100.25 114.238C1103.16 116.073 1103.16 116.363 1100.76 116.943C1098.53 117.329 1098.36 117.908 1099.56 119.26C1102.13 121.965 1101.62 122.351 1097.5 121.675C1094.25 121.095 1093.9 121.192 1095.79 122.254C1098.7 124.089 1098.53 128.918 1095.28 128.918C1093.9 128.918 1092.7 128.339 1092.7 127.663C1092.7 126.89 1092.19 126.987 1090.99 127.952C1089.96 128.918 1090.3 130.077 1091.85 131.526C1093.22 132.588 1094.59 134.616 1095.1 135.872C1095.79 137.996 1095.28 138.19 1090.82 137.803C1084.99 137.32 1084.3 138.576 1089.28 140.314C1093.73 141.86 1094.08 146.688 1089.62 146.109C1084.82 145.336 1082.08 147.654 1084.99 149.779C1089.28 152.966 1088.08 154.028 1081.22 153.545C1075.22 153.159 1075.05 153.256 1077.96 154.511C1079.68 155.284 1081.73 156.056 1082.42 156.153C1083.1 156.346 1084.3 157.891 1084.99 159.533C1085.85 162.044 1085.5 162.72 1083.45 162.72C1080.36 162.72 1079.85 164.169 1082.42 165.135C1085.16 166.1 1082.76 167.452 1079.16 166.873C1074.7 166.197 1072.99 168.225 1076.25 170.06C1079.33 171.798 1079.5 172.378 1077.28 174.309C1076.42 175.179 1076.42 176.144 1077.62 176.917C1078.99 177.883 1078.3 178.172 1074.88 178.172C1070.25 178.172 1069.56 176.434 1072.82 173.44C1074.36 172.185 1070.93 170.157 1068.53 171.026C1067.85 171.219 1066.82 170.736 1066.31 169.867C1065.28 168.418 1071.1 164.748 1074.36 164.652C1075.05 164.652 1075.56 164.169 1075.56 163.589C1075.56 162.817 1073.5 162.624 1069.56 163.01C1062.71 163.686 1060.13 162.334 1065.28 160.789C1070.25 159.34 1069.56 157.505 1064.42 158.278C1059.45 158.954 1058.42 157.215 1063.22 156.249C1064.76 155.863 1066.99 154.897 1068.19 154.125C1071.1 151.904 1067.33 150.938 1062.71 152.676C1059.28 153.932 1058.76 153.932 1057.73 152.58C1057.05 151.517 1058.25 150.745 1061.16 150.165C1065.96 149.103 1065.28 147.268 1060.13 147.268C1055.51 147.268 1054.31 145.626 1057.39 143.791C1061.16 141.763 1060.82 140.507 1056.71 140.507C1053.79 140.507 1053.45 140.121 1054.31 137.803C1054.99 136.355 1056.36 134.809 1057.39 134.423C1058.59 133.844 1058.25 133.747 1056.36 134.037C1052.59 134.713 1051.05 132.202 1054.13 130.463C1057.05 128.918 1055.85 127.856 1051.91 128.628C1050.19 129.015 1049.68 128.822 1050.53 128.146C1051.05 127.566 1051.05 126.89 1050.19 126.6C1049.33 126.311 1048.99 124.765 1049.51 123.124C1049.85 121.385 1049.51 120.226 1048.31 120.226C1046.59 120.226 1045.73 122.351 1045.91 125.828C1046.08 126.6 1045.05 126.89 1043.68 126.6C1041.79 126.214 1041.79 126.6 1044.02 128.435C1045.73 129.981 1046.08 130.85 1044.88 130.85C1043.68 130.85 1043.16 131.816 1043.68 133.264C1044.19 134.616 1043.68 135.679 1042.82 135.679C1041.96 135.679 1041.28 135.196 1041.28 134.52C1041.28 133.94 1040.76 133.747 1040.25 134.037C1039.56 134.423 1040.08 135.292 1041.11 136.065C1043.85 137.9 1042.13 139.638 1038.19 138.866C1035.79 138.383 1035.62 138.576 1037.51 139.638C1040.42 141.473 1040.08 142.439 1036.13 142.439C1034.25 142.439 1032.71 141.956 1032.71 141.28C1032.71 140.701 1032.19 140.507 1031.51 140.797C1030.99 141.183 1031.68 142.246 1033.22 143.212C1034.93 144.177 1035.79 145.24 1035.28 145.529C1034.76 145.819 1035.45 146.592 1036.99 147.268C1041.45 149.296 1039.91 150.455 1033.56 149.875L1027.56 149.296L1031.68 151.421C1034.08 152.58 1036.31 154.511 1036.99 155.767C1038.02 157.891 1037.85 157.988 1030.99 157.505C1024.13 157.022 1023.79 157.119 1024.82 159.147C1025.33 160.306 1025.85 161.561 1025.85 161.851C1025.85 162.237 1027.73 162.817 1030.13 163.106C1033.39 163.589 1034.25 164.265 1033.73 165.907C1033.05 168.128 1032.36 168.225 1026.88 166.97C1023.96 166.294 1023.96 166.583 1027.56 169.191C1029.62 170.833 1030.82 172.668 1030.13 173.247C1029.45 173.923 1029.96 174.985 1030.99 175.758C1033.56 177.593 1032.88 177.593 1025.51 175.855C1020.36 174.599 1019.51 174.599 1019.51 175.855C1019.51 176.627 1020.19 177.207 1021.05 177.207C1021.91 177.207 1023.11 178.172 1023.96 179.331C1025.16 181.07 1024.65 181.746 1021.91 182.325C1019.16 182.905 1018.82 183.291 1020.36 184.16C1022.76 185.512 1023.11 188.796 1020.88 188.796C1020.02 188.796 1018.31 187.444 1016.93 185.899C1015.73 184.257 1013.68 183.001 1012.31 183.001C1010.42 183.001 1010.42 182.712 1012.13 181.553C1013.33 180.78 1015.39 180.104 1016.59 180.104C1017.96 180.104 1018.99 179.621 1018.99 179.138C1018.99 178.559 1017.79 178.172 1016.25 178.172C1014.88 178.172 1014.19 177.69 1014.71 177.207C1015.22 176.627 1014.53 176.241 1012.82 176.241C1010.59 176.241 1010.42 175.951 1012.13 174.792C1013.85 173.537 1013.68 173.344 1010.42 173.344C1007.85 173.344 1006.99 172.861 1007.51 171.992C1008.02 171.219 1007.33 170.06 1005.96 169.481C1003.39 168.225 1003.22 168.322 1003.05 175.468C1002.88 178.462 1002.19 179.138 999.449 179.138C996.192 179.138 996.192 179.235 999.963 181.456C1003.22 183.484 1003.39 183.774 1000.99 184.353C999.449 184.643 997.392 184.74 996.535 184.353C995.678 184.064 994.992 184.257 994.992 184.836C994.992 185.416 996.878 186.092 999.278 186.478C1004.42 187.251 1004.93 188.796 999.963 188.796C997.049 188.796 996.706 189.086 998.249 190.148C999.621 191.017 999.621 191.693 998.592 192.08C997.735 192.466 996.535 192.273 995.849 191.693C995.163 191.114 993.963 190.921 993.106 191.21C992.249 191.597 991.564 191.307 991.564 190.631C991.564 189.858 990.878 189.858 989.335 190.534C987.964 191.21 986.249 191.21 984.706 190.631C982.992 190.148 982.821 189.472 983.849 188.989C984.878 188.603 985.735 186.575 986.078 184.45C986.421 181.456 986.078 180.973 984.706 182.229C983.678 183.098 981.792 183.677 980.421 183.388C979.049 183.001 977.849 183.291 977.849 183.871C977.849 184.45 976.649 184.933 975.278 184.933C971.678 184.933 972.021 183.677 976.992 180.49C981.621 177.496 980.421 176.338 974.592 178.172C972.535 178.752 970.992 178.945 970.992 178.559C970.992 177.593 978.535 174.406 980.935 174.309C982.135 174.309 982.821 173.923 982.307 173.44C981.278 172.571 974.078 172.764 971.164 173.827C967.735 174.985 969.278 173.15 973.221 171.316L976.992 169.577L973.221 169.481C969.107 169.481 965.85 167.356 968.935 166.776C972.192 166.197 971.335 164.941 967.564 164.362C964.65 163.976 964.307 163.493 965.85 161.368C966.707 160.016 966.878 158.857 966.021 158.857C965.335 158.857 963.793 157.891 962.593 156.636L960.535 154.511L961.393 156.636C961.735 157.795 961.221 158.954 960.021 159.243C958.821 159.533 958.821 159.726 960.364 159.726C961.393 159.823 962.421 160.209 962.421 160.692C962.421 161.175 960.707 161.368 958.65 161.078L954.707 160.595L958.65 162.141C963.45 164.169 963.45 165.617 958.821 165.617C955.564 165.617 955.564 165.714 957.964 167.163C961.564 169.191 961.393 169.77 957.45 169.191C954.878 168.805 954.364 169.094 955.05 170.35C955.564 171.219 956.764 172.474 957.793 173.054C959.85 174.599 958.136 174.696 953.678 173.344C949.221 171.992 949.564 173.054 954.364 175.372L958.136 177.303L954.021 176.627C951.107 176.241 950.25 176.338 950.764 177.303C951.279 178.076 953.164 178.752 955.221 178.945C960.535 179.428 959.85 180.877 954.364 181.263C950.936 181.456 949.736 182.036 950.079 183.194C950.421 184.16 949.736 184.933 948.707 184.933C947.679 184.933 947.164 185.319 947.679 185.802C948.193 186.285 947.507 187.154 946.136 187.83C943.564 188.989 943.393 188.893 942.879 186.575C942.879 185.995 941.679 185.319 940.65 185.319C936.022 185.029 936.022 184.836 939.964 182.905C943.393 181.263 943.736 180.78 941.85 180.104C940.307 179.525 938.936 179.621 938.25 180.297C937.564 180.973 936.707 180.877 935.85 180.104C934.993 179.331 935.679 178.366 937.222 177.69C941.336 176.048 940.993 174.02 936.879 174.792C931.565 175.661 930.879 173.44 935.679 171.122C939.964 169.094 941.679 166.583 938.936 166.583C938.079 166.583 935.336 167.259 932.593 168.032C930.022 168.805 927.108 169.191 926.25 168.901C923.85 168.128 929.85 163.686 933.45 163.686C935.336 163.686 936.707 163.203 936.707 162.72C936.707 162.141 934.993 161.754 933.107 161.754C929.85 161.754 929.679 161.561 931.736 160.209C933.793 158.76 933.622 158.664 930.365 159.243C925.565 160.113 924.365 157.505 927.622 153.738C930.022 151.034 930.022 151.034 926.422 152.097C921.965 153.449 920.079 152.676 922.993 150.648C924.708 149.489 924.708 149.199 922.308 149.199C920.25 149.199 919.565 148.33 919.565 145.819C919.565 143.984 918.879 142.439 918.022 142.439C915.451 142.439 914.765 144.66 916.479 146.688C918.022 148.234 917.679 148.427 914.422 147.944C910.994 147.461 910.994 147.558 913.222 149.006C915.622 150.551 916.822 155.96 914.765 155.96C914.422 155.96 912.879 155.187 911.679 154.221C910.479 153.352 909.279 153.062 909.279 153.642C909.279 154.125 910.651 155.477 912.365 156.539C914.936 158.084 915.108 158.664 913.393 159.63C910.479 161.078 908.079 161.078 907.222 159.63C906.879 159.05 905.508 158.76 904.308 158.954C901.737 159.437 907.565 163.686 910.822 163.686C911.851 163.686 912.708 164.362 912.708 165.231C912.708 166.294 911.679 166.68 909.279 166.294C903.451 165.424 900.879 168.708 905.508 171.316C907.736 172.571 907.565 172.861 905.336 173.247C903.451 173.633 903.108 174.309 903.965 175.179C904.822 175.951 904.308 177.883 902.594 180.104C900.708 182.808 898.822 183.677 896.08 183.677C893.851 183.677 891.622 183.388 891.108 182.905C890.594 182.422 891.451 182.036 892.822 182.036C894.365 182.036 895.565 181.456 895.565 180.683C895.565 179.911 896.765 178.559 898.479 177.69C900.879 176.338 900.879 175.951 898.822 175.275C897.451 174.696 895.737 174.792 894.88 175.275C892.137 176.82 888.708 176.338 888.708 174.406C888.708 173.344 890.251 172.378 892.308 172.088C894.365 171.798 895.394 171.122 894.708 170.543C894.194 169.963 894.537 169.481 895.565 169.481C896.594 169.481 897.108 169.094 896.594 168.611C896.08 168.128 896.765 167.549 898.137 167.163C899.508 166.873 900.194 166.1 899.851 165.328C898.822 164.072 892.994 163.976 885.794 165.231C882.194 165.811 882.194 165.617 884.08 163.3C885.28 161.948 886.994 160.789 887.851 160.789C888.88 160.789 888.365 160.306 886.994 159.823C884.765 158.954 884.765 158.76 886.994 157.891C889.222 157.119 889.051 156.926 886.651 156.926C884.937 156.926 883.565 156.539 883.565 155.96C883.565 154.801 891.794 150.165 893.851 150.165C894.88 150.165 895.565 149.779 895.565 149.199C895.565 148.62 890.594 148.427 883.565 148.523C871.909 148.813 871.566 148.813 871.566 146.495C871.566 144.467 872.08 144.274 877.051 144.853C882.365 145.433 882.537 145.336 879.451 143.984C876.708 142.729 876.537 142.246 878.423 140.99C879.623 140.218 879.966 139.542 879.28 139.542C878.423 139.542 879.28 138.576 881.165 137.514C884.423 135.389 884.423 135.389 879.794 135.968C877.394 136.355 874.137 136.934 872.594 137.224C867.28 138.383 869.851 135.679 875.508 134.327C880.651 132.974 880.823 132.974 876.708 132.781L872.423 132.685L876.366 131.139C882.365 128.822 880.823 127.856 873.28 129.401C865.223 130.946 863.852 129.691 871.737 127.952C875.337 127.083 876.194 126.504 874.823 125.924C873.108 125.345 873.108 124.862 874.823 123.703C876.88 122.351 876.537 122.158 872.766 122.158C870.366 122.158 868.137 121.482 867.451 120.709C866.937 119.743 867.623 119.26 869.68 119.26C873.451 119.26 875.68 116.749 872.594 116.073C871.223 115.784 869.337 116.073 868.309 116.653C866.937 117.426 866.594 116.749 866.937 113.659C867.451 110.279 867.109 109.796 865.051 110.858C862.823 111.824 862.652 111.631 863.337 109.41C863.852 107.671 863.337 106.609 861.794 106.319C859.909 105.933 859.566 106.223 860.423 107.671C861.28 109.12 860.766 109.603 858.537 109.603C856.137 109.603 855.966 109.893 857.509 110.762C860.594 112.5 859.909 113.756 856.137 113.176C853.052 112.79 853.052 112.886 854.937 114.721C855.966 115.88 856.994 118.295 857.166 119.937C857.337 122.737 856.994 123.027 853.395 122.737C848.423 122.158 848.252 122.544 852.709 125.055C854.595 126.117 856.137 127.373 856.137 127.952C856.137 129.498 851.509 129.111 848.423 127.373C846.88 126.504 845.166 126.021 844.652 126.407C844.138 126.697 845.68 127.856 848.08 129.015C852.88 131.139 854.252 133.747 850.48 133.747C849.28 133.747 847.395 133.264 846.195 132.588C845.166 132.009 843.623 131.719 842.938 132.105C842.423 132.492 843.452 133.65 845.338 134.713C847.395 135.679 849.452 136.258 849.966 135.872C850.652 135.582 851.852 135.872 852.709 136.644C855.28 138.962 854.766 139.735 850.995 139.059C847.395 138.383 846.023 140.025 849.795 140.797C850.823 140.99 851.166 141.57 850.48 142.053C849.795 142.439 847.566 142.342 845.68 141.666C842.423 140.507 842.423 140.507 844.995 142.825C847.052 144.66 847.395 145.626 846.023 147.075C844.652 148.523 844.823 149.296 846.88 150.262C848.252 150.841 848.766 151.807 848.08 152.193C846.366 153.159 838.995 152.193 838.995 151.034C838.995 150.551 837.795 150.165 836.423 150.165C833.166 150.165 833.166 147.847 836.423 146.302C840.023 144.564 839.681 142.439 835.566 142.439C833.681 142.439 832.138 141.956 832.138 141.473C832.138 140.894 833.338 140.507 834.881 140.507C838.309 140.507 843.623 137.707 840.366 137.514C839.166 137.417 837.109 137.417 836.081 137.514C834.881 137.61 833.852 137.224 833.852 136.741C833.852 136.161 832.652 135.968 831.281 136.258C829.738 136.644 828.709 136.258 828.709 135.292C828.709 134.423 830.081 133.747 831.795 133.747C835.909 133.747 837.281 132.974 836.081 131.236C835.566 130.367 833.852 130.077 831.966 130.367C828.366 131.043 827.509 129.015 830.595 127.276C832.138 126.407 831.452 125.924 828.024 125.441C822.709 124.765 822.538 124.283 826.481 122.544C829.395 121.289 829.395 121.289 826.652 121.192C824.938 121.192 823.567 120.902 823.567 120.613C823.567 120.226 824.938 119.357 826.652 118.584C829.224 117.426 829.052 117.329 825.109 117.908C820.824 118.391 820.652 118.295 821.167 115.011C821.338 113.08 820.824 111.534 819.967 111.534C818.424 111.534 817.738 113.562 818.081 116.653C818.252 117.619 817.567 118.102 816.71 117.812C815.681 117.426 814.995 118.488 814.995 120.323C814.995 122.93 814.652 123.22 812.424 122.158C810.881 121.482 809.338 121.192 808.653 121.578C808.138 121.868 808.481 122.158 809.681 122.158C811.052 122.158 811.567 122.834 810.881 123.606C810.367 124.379 810.881 125.055 812.081 125.055C815.51 125.055 814.652 128.822 811.052 129.498C808.653 129.884 808.481 130.367 809.852 131.333C810.881 132.009 811.224 133.94 810.71 135.582C810.195 137.32 810.538 138.576 811.567 138.576C812.424 138.576 813.281 139.252 813.281 140.121C813.281 141.183 812.424 141.473 810.367 140.99C807.795 140.507 807.624 140.604 809.51 141.57C812.938 143.598 811.91 144.66 807.281 143.984C804.881 143.598 802.995 143.791 802.995 144.371C802.995 144.853 804.024 145.336 805.224 145.336C806.595 145.336 807.453 146.592 807.624 148.523C807.795 151.614 807.624 151.71 801.453 151.324L795.281 150.938L800.596 152.869C803.681 153.932 806.595 155.284 807.11 155.863C807.795 156.443 809.852 156.926 811.738 156.926C813.967 156.926 814.995 157.602 814.995 158.954C814.995 160.692 814.31 160.982 809.852 160.499C803.338 159.726 801.281 161.561 806.081 163.783C810.881 165.907 810.881 166.583 805.91 166.583C801.795 166.583 800.767 168.611 803.681 171.219C805.053 172.474 801.11 175.275 798.024 175.275C796.996 175.275 796.138 174.599 796.138 173.73C796.138 172.764 795.11 172.378 793.567 172.764C790.653 173.344 789.967 170.929 792.71 169.963C793.738 169.674 793.91 168.225 793.396 166.873C792.539 165.231 792.881 164.555 794.081 165.038C795.11 165.328 796.31 165.231 796.996 164.652C797.51 164.072 796.31 163.686 794.081 163.686L790.139 163.589L794.253 161.658L798.538 159.726L793.91 160.306C789.967 160.885 789.281 160.692 789.624 159.05C789.967 157.891 789.453 157.119 788.424 157.215C787.567 157.312 786.881 158.857 786.881 160.595C787.053 163.3 786.71 163.589 784.482 162.527C782.253 161.465 782.082 161.561 783.796 163.396C785.853 165.521 784.996 168.515 782.253 168.515C781.396 168.515 780.71 169.191 780.71 170.06C780.71 171.992 776.082 174.599 773.853 173.827C772.996 173.537 772.139 173.633 772.139 174.213C772.139 174.696 772.825 175.468 773.853 175.758C776.939 176.82 775.567 177.979 771.796 177.496C767.853 177.014 767.853 177.014 771.282 178.462C773.167 179.331 774.025 180.297 773.167 180.78C772.31 181.166 771.282 180.973 770.939 180.297C770.425 179.718 769.225 179.138 768.196 179.138C766.996 179.235 767.853 180.007 770.082 181.07C772.139 182.036 773.167 183.098 772.31 183.388C771.453 183.774 770.253 183.581 769.567 183.001C769.053 182.518 767.51 182.036 766.482 182.036C765.282 182.036 766.825 183.194 769.567 184.45L774.71 186.961L768.71 186.382L762.71 185.899L768.196 187.54C776.082 189.762 775.739 191.983 767.853 191.114C760.825 190.438 759.282 192.273 766.139 193.238C768.539 193.528 769.91 194.204 769.567 194.687C769.053 195.073 767.339 195.267 765.625 194.977C763.225 194.494 763.225 194.591 765.11 195.363C766.482 195.943 768.539 196.136 769.91 195.846C772.653 195.267 772.825 197.681 770.082 199.226C768.539 200.095 835.395 200.385 1070.93 200.385C1271.67 200.385 1373.84 200.095 1374.01 199.419C1374.7 196.039 1374.36 193.915 1373.16 192.852C1371.27 191.114 1374.87 188.989 1381.21 188.216C1384.3 187.83 1385.67 187.347 1384.64 187.154C1381.56 186.575 1381.9 184.836 1385.5 183.388C1388.07 182.325 1387.56 182.229 1382.24 182.712C1378.81 183.001 1375.56 182.808 1374.87 182.229C1374.36 181.649 1372.13 181.456 1369.9 181.649C1367.16 181.939 1367.33 181.746 1370.93 180.973C1373.5 180.394 1375.56 179.525 1375.56 179.138C1375.56 178.655 1377.27 177.4 1379.33 176.241L1383.1 174.309H1379.33C1377.44 174.309 1375.39 173.923 1374.7 173.344C1374.19 172.861 1372.47 172.764 1371.1 173.054C1367.5 173.827 1364.93 171.412 1367.67 169.867C1368.87 169.287 1371.27 168.515 1373.16 168.322C1374.87 168.128 1376.41 167.452 1376.41 166.776C1376.41 166.1 1377.61 165.135 1378.99 164.652C1382.93 163.3 1379.5 162.334 1374.7 163.493C1371.79 164.265 1369.04 164.265 1365.27 163.589C1360.3 162.624 1358.07 160.789 1361.84 160.789C1364.59 160.789 1372.13 155.863 1371.1 154.801C1370.59 154.318 1368.19 154.608 1365.79 155.477C1360.64 157.408 1359.27 156.926 1360.81 153.545C1361.67 151.807 1363.04 151.131 1366.13 151.131C1368.53 151.131 1371.1 150.358 1372.13 149.199C1374.36 146.882 1373.33 146.688 1369.73 148.716C1367.16 150.165 1361.84 149.779 1361.84 148.137C1361.84 147.558 1360.47 147.654 1358.59 148.234C1354.3 149.489 1353.1 148.33 1354.81 144.757C1355.5 143.018 1357.56 141.763 1360.3 141.377C1363.04 140.894 1363.39 140.701 1361.5 140.604C1359.79 140.507 1358.41 139.831 1358.41 139.059C1358.41 138.383 1359.79 137.224 1361.5 136.644C1364.07 135.679 1363.9 135.582 1360.64 135.968C1358.07 136.355 1356.7 135.968 1356.7 135.099C1356.7 134.327 1357.56 133.747 1358.41 133.747C1359.44 133.747 1359.27 133.168 1358.07 132.395C1356.7 131.526 1355.16 131.333 1354.3 131.912C1351.39 133.457 1345.9 132.974 1347.1 131.236C1347.61 130.367 1348.13 129.305 1348.13 128.725C1348.13 128.146 1349.33 127.952 1350.7 128.339C1352.07 128.628 1354.3 128.146 1355.84 127.373C1359.27 125.441 1359.27 123.413 1355.84 125.055C1353.61 126.117 1352.24 126.021 1348.47 124.959C1345.9 124.283 1343.67 123.606 1343.5 123.606C1343.16 123.51 1343.67 122.061 1344.53 120.419C1346.07 117.522 1344.19 115.88 1342.47 118.488C1342.13 119.164 1341.1 119.454 1340.41 119.067C1339.73 118.681 1340.41 117.136 1341.79 115.494C1343.84 113.08 1343.84 112.693 1341.96 113.176C1339.9 113.562 1339.9 113.176 1341.27 111.051C1342.81 108.83 1342.64 108.54 1340.41 109.023C1337.33 109.699 1336.99 108.54 1339.9 106.899C1341.44 106.029 1341.44 105.74 1339.39 105.74C1337.84 105.74 1335.96 104.291 1334.93 102.07C1333.56 99.4622 1333.04 99.0759 1332.87 100.718Z" fill="#00290C"/>
<rect x="0.327209" y="190.437" width="1378.49" height="73.1481" fill="#00290C"/>
<path d="M588.225 15.7543C588.225 16.0913 589.089 16.4283 590.2 16.4283C591.188 16.4283 591.682 16.0913 591.312 15.7543C590.941 15.3498 590.077 15.0802 589.336 15.0802C588.719 15.0802 588.225 15.3498 588.225 15.7543Z" fill="#00290C"/>
<path d="M609.833 47.4352C609.463 47.7722 609.586 48.1093 610.327 48.1093C610.945 48.1093 611.933 47.7722 612.303 47.4352C612.673 47.0308 612.55 46.7611 611.809 46.7611C611.192 46.7611 610.204 47.0308 609.833 47.4352Z" fill="#00290C"/>
<path d="M683.426 63.3431C683.426 64.0846 683.797 64.2868 684.167 63.7475C684.538 63.2757 684.415 62.669 684.044 62.4668C683.673 62.1972 683.302 62.6016 683.426 63.3431Z" fill="#00290C"/>
<path d="M735.287 66.4438C734.052 68.3311 734.793 69.6793 736.892 69.2748C738.621 68.9378 739.114 64.9608 737.386 64.9608C736.768 64.9608 735.904 65.6349 735.287 66.4438Z" fill="#00290C"/>
<path d="M730.224 120.436C730.224 121.043 729.73 121.582 728.989 121.582C728.372 121.582 727.755 122.189 727.755 122.93C727.755 123.672 727.137 124.278 726.273 124.278C725.161 124.278 725.161 124.48 726.273 125.087C728.372 126.233 728.125 127.042 725.902 126.57C724.915 126.3 724.05 126.435 724.05 126.84C724.05 127.244 724.668 127.648 725.408 127.783C726.149 127.918 726.89 129.334 727.137 130.884C727.384 132.502 727.014 133.58 726.396 133.378C725.779 133.108 724.421 133.243 723.309 133.58C721.457 134.119 721.704 134.322 724.668 135.131C728.619 136.209 730.224 137.759 727.384 137.759C726.149 137.759 725.779 138.231 726.149 139.108C726.52 139.849 727.261 140.456 727.878 140.456C728.495 140.456 728.989 140.793 728.989 141.197C728.989 141.669 727.261 141.871 724.668 141.669C719.605 141.332 718.988 142.41 722.815 144.5C726.149 146.32 725.902 146.724 722.198 146.253C719.975 145.916 719.111 146.118 719.111 146.792C719.111 147.331 719.728 148.005 720.346 148.207C722.939 149.084 721.457 150.027 717.876 149.758C714.542 149.488 714.172 149.623 714.913 150.836C715.407 151.645 716.148 152.319 716.642 152.454C717.259 152.589 718.864 153.263 720.469 154.004C723.68 155.487 722.568 156.633 719.111 155.42C716.024 154.409 715.777 155.555 718.617 157.105C719.605 157.712 720.222 158.588 719.852 159.127C719.482 159.599 719.975 160.206 720.963 160.408C722.939 160.88 723.556 162.026 721.704 162.026C721.087 162.026 719.728 161.554 718.617 161.015C716.024 159.599 713.802 159.666 715.283 161.149C715.901 161.823 716.765 163.778 717.259 165.531C718.617 170.384 715.777 169.575 714.048 164.654C712.937 161.621 712.196 160.678 710.838 160.947C709.603 161.217 709.233 161.015 709.727 160.138C710.097 159.532 709.85 158.521 709.233 157.981C708.615 157.375 708.615 156.701 709.48 156.161C710.468 155.487 710.221 155.285 708.862 155.285C707.504 155.285 707.01 154.746 707.381 153.33C707.628 152.117 707.257 151.241 706.146 150.971C704.17 150.567 702.812 152.184 703.923 153.735C704.664 154.813 704.541 154.881 702.318 153.937C700.096 152.993 700.096 152.993 702.195 154.341C704.788 156.026 704.911 156.701 702.442 156.229C701.454 155.959 700.589 156.161 700.589 156.566C700.589 157.038 701.454 157.509 702.442 157.712C705.158 158.318 704.664 159.532 701.824 159.127C699.725 158.858 699.602 158.992 700.713 160.071C702.071 161.554 701.083 162.969 699.108 162.295C697.379 161.689 695.527 163.441 696.391 164.857C696.762 165.531 696.515 166.07 695.774 166.07C695.033 166.07 694.416 166.474 694.416 167.014C694.416 167.553 693.798 168.227 693.057 168.497C692.069 168.766 691.946 168.429 692.563 167.418C693.181 166.407 692.81 165.666 691.823 165.329C690.588 164.924 690.464 164.587 691.452 164.183C692.193 163.913 693.181 163.037 693.675 162.228C694.416 161.015 694.169 160.88 691.946 161.149C688.736 161.621 688.736 160.273 691.946 159.329C695.527 158.318 695.033 157.172 691.205 157.712C688.242 158.116 688.118 158.049 689.353 156.768C691.205 154.881 691.082 154.274 688.983 155.218C686.143 156.566 684.29 154.072 686.636 152.117C688.365 150.701 688.365 150.567 686.513 150.971C685.278 151.241 684.537 151.038 684.537 150.364C684.537 149.825 683.92 149.218 683.303 149.084C682.562 148.949 681.45 147.331 680.956 145.511C680.092 142.815 679.845 142.613 679.722 144.298C679.722 145.511 678.981 146.522 678.363 146.522C677.623 146.522 677.376 147.264 677.87 148.207C678.24 149.151 678.117 149.893 677.499 149.893C675.894 149.893 676.141 152.791 677.746 153.398C678.487 153.735 678.24 154.207 677.129 154.611C675.894 155.015 675.77 155.285 676.882 155.285C677.623 155.285 678.363 155.555 678.363 155.959C678.363 156.296 677.499 156.633 676.511 156.633C675.03 156.633 674.906 156.903 675.894 157.914C677.746 159.869 677.499 160.206 674.042 159.734C670.831 159.262 669.72 160.273 672.683 160.88C675.153 161.419 674.659 163.98 671.943 164.789C669.35 165.531 668.732 164.183 671.078 162.902C672.683 162.026 671.325 160.475 669.473 161.082C668.609 161.419 668.362 160.947 668.732 159.801C669.226 158.386 668.732 157.981 666.139 157.644C663.176 157.24 663.052 157.105 665.151 156.364C666.263 155.892 667.25 155.15 667.25 154.813C667.25 154.409 668.485 153.802 670.09 153.33C672.56 152.656 672.313 152.589 668.238 152.791C662.929 152.993 661.941 151.915 666.016 150.364C668.238 149.488 668.362 149.353 666.633 148.949C665.522 148.747 664.04 148.679 663.423 148.949C662.805 149.151 662.311 148.679 662.311 147.938C662.311 147.196 663.299 146.455 664.534 146.32C666.016 146.118 665.645 145.983 663.546 145.916L660.459 145.848L663.546 144.433C666.51 143.085 666.51 143.017 663.917 143.354C660.459 143.759 659.101 142.747 661.077 141.467C662.311 140.658 662.188 140.456 660.583 140.456C658.977 140.456 658.731 140.186 659.718 139.175C660.83 138.164 660.583 137.827 658.36 137.557C656.384 137.22 656.014 136.951 657.002 136.276C657.866 135.67 657.743 134.322 656.755 132.03C655.026 128.255 654.779 128.592 653.421 136.411C653.174 137.692 652.557 138.973 651.939 139.242C651.198 139.512 651.445 140.186 652.557 140.86C653.915 141.736 653.915 142.073 652.804 142.276C651.939 142.478 651.198 143.017 651.198 143.489C651.198 143.961 651.939 144.5 652.804 144.702C653.544 144.837 652.186 145.444 649.717 146.05C647.124 146.657 645.025 147.601 645.025 148.14C645.025 148.747 643.913 149.218 642.555 149.218C639.221 149.218 639.468 148.544 643.543 146.657C645.518 145.713 646.012 145.242 644.778 145.444C641.197 146.05 641.073 144.702 644.531 143.219C648.358 141.602 647.741 140.658 643.79 141.804C640.456 142.815 639.345 142.276 641.938 140.928C644.531 139.512 644.284 138.905 641.32 139.31C639.468 139.579 638.851 139.31 638.851 138.366C638.851 137.692 639.591 137.085 640.579 137.085C641.444 137.085 643.049 136.546 643.913 135.939C645.395 134.928 645.395 134.861 643.172 135.198C641.814 135.4 639.591 135.805 638.357 136.142C636.505 136.546 636.134 136.411 636.752 135.535C637.122 134.996 636.875 134.322 636.011 134.187C635.023 133.985 635.64 133.243 637.616 132.03C640.579 130.21 640.579 130.143 638.11 130.48C636.011 130.749 635.517 130.547 635.517 129.266C635.517 128.323 636.011 127.446 636.628 127.244C637.369 126.974 636.134 125.963 633.912 124.885C629.59 122.728 628.355 122.458 629.466 123.941C629.837 124.48 629.59 124.952 628.972 124.952C628.232 124.952 627.738 125.222 627.738 125.626C627.738 125.963 628.602 126.3 629.59 126.3C630.578 126.3 631.442 126.772 631.442 127.311C631.442 127.851 630.948 128.323 630.331 128.323C629.837 128.323 629.59 129.064 629.96 130.008C630.207 130.951 629.96 131.693 629.219 131.693C628.479 131.693 628.232 132.3 628.602 133.108C629.466 134.794 626.75 136.007 624.404 134.928C621.317 133.513 622.922 135.468 626.75 137.759C629.96 139.714 630.207 140.186 628.602 140.321C627.367 140.456 626.75 140.86 627.12 141.197C627.614 141.534 626.626 141.804 625.021 141.804C622.305 141.871 622.305 141.871 625.639 142.882C629.713 144.096 629.096 145.107 624.404 144.702C621.317 144.5 621.193 144.567 623.539 145.107C626.503 145.848 628.602 147.196 626.626 147.196C626.009 147.196 623.91 146.859 622.181 146.522C619.341 145.916 618.971 145.983 619.341 146.994C619.588 147.668 620.946 148.477 622.428 148.881C624.774 149.421 625.885 150.23 628.725 153.398C628.972 153.667 627.491 153.735 625.392 153.532C620.823 152.993 620.082 154.274 624.651 154.881C626.379 155.15 627.738 155.622 627.738 156.026C627.738 156.903 624.527 158.723 623.169 158.588C619.588 158.251 618.971 158.79 621.564 160.003C623.169 160.745 623.91 161.352 623.292 161.419C622.675 161.419 623.539 161.689 625.021 162.093C628.108 162.7 628.108 164.587 625.145 164.115C624.157 163.98 622.428 163.711 621.317 163.576C619.341 163.239 619.341 163.441 621.44 165.8C623.663 168.294 623.663 168.362 621.193 169.508C618.971 170.451 618.847 170.788 620.206 171.732C621.687 172.676 621.564 172.811 619.341 172.811C617.983 172.811 616.625 173.282 616.131 173.822C615.39 174.968 611.686 175.237 611.686 174.159C611.686 173.754 613.044 172.811 614.772 172.002C618.477 170.249 618.971 168.497 615.513 169.103C613.538 169.44 613.291 169.171 613.414 167.351C613.538 166.205 614.526 164.992 615.76 164.654C616.872 164.25 617.859 163.509 617.859 163.037C617.859 162.497 618.477 162.026 619.094 162.026C619.835 162.026 620.329 161.689 620.329 161.352C620.329 160.947 618.23 161.284 615.76 162.026C608.475 164.115 606.746 163.643 612.056 161.015C616.254 158.79 617.983 157.172 615.76 157.375C615.143 157.442 613.538 157.442 611.933 157.375L608.969 157.307L611.686 154.948C614.526 152.454 613.908 151.982 609.957 153.6C606.623 154.948 605.141 154.139 607.487 152.184C609.339 150.701 609.339 150.567 607.24 150.567C605.018 150.499 605.018 150.499 607.24 149.555C609.586 148.612 609.586 148.544 606.499 148.544C604.4 148.544 603.166 148.073 602.672 147.196C602.178 146.253 602.672 145.848 604.03 145.848C605.635 145.848 605.635 145.713 603.66 144.904C602.301 144.365 601.684 143.556 602.178 142.95C602.548 142.343 602.548 141.669 601.931 141.534C601.437 141.332 601.066 140.523 601.19 139.647C601.313 138.771 600.943 137.692 600.202 137.22C599.214 136.546 599.338 136.142 600.449 135.805C601.56 135.4 601.56 135.131 600.202 134.457C598.72 133.85 598.226 134.052 597.733 135.535C597.362 136.614 597.733 137.692 598.473 137.962C599.585 138.366 599.585 138.636 598.597 138.838C597.856 139.04 597.486 139.916 597.856 140.793C598.226 141.939 597.856 142.478 596.745 142.478C595.263 142.478 595.263 142.613 596.745 143.085C597.733 143.422 598.103 144.163 597.733 144.837C597.239 145.444 596.374 145.713 595.633 145.511C595.016 145.309 594.399 145.376 594.399 145.781C594.399 146.118 595.14 146.59 596.004 146.792C596.745 146.994 595.88 146.994 593.781 146.792L590.077 146.387L592.917 148.005C595.757 149.69 596.498 151.241 594.399 151.241C593.781 151.241 593.164 150.904 593.164 150.432C593.164 150.027 592.793 149.825 592.423 150.027C592.053 150.297 592.423 151.106 593.164 151.915C594.522 153.263 594.399 153.33 591.682 152.926C589.213 152.454 589.089 152.521 590.571 153.532C591.559 154.139 591.929 154.813 591.435 155.083C591.065 155.285 591.682 156.094 592.793 156.835C595.016 158.183 594.893 158.183 590.447 157.779C586.867 157.509 586.002 157.577 586.62 158.386C586.99 158.925 587.978 159.329 588.842 159.329C589.707 159.329 590.694 159.801 591.188 160.34C591.559 160.88 591.188 161.352 590.324 161.352C589.336 161.352 589.336 161.554 590.571 161.958C592.793 162.767 591.188 164.048 587.854 164.048C586.373 164.048 585.755 164.317 586.373 164.587C587.484 164.992 590.694 168.362 590.694 169.103C590.694 169.305 589.213 169.44 587.484 169.44H584.15L587.36 171.193C590.941 173.148 590.818 174.159 586.99 173.957C585.508 173.889 584.52 173.417 584.52 172.676C584.52 171.8 583.533 171.462 581.187 171.462C577.853 171.395 577.853 171.395 580.075 170.451C582.545 169.44 583.656 166.07 581.681 166.07C581.063 166.07 580.816 165.329 581.063 164.452C581.434 163.441 581.063 162.632 580.075 162.43C579.087 162.228 578.347 161.217 578.347 160.206C578.347 159.195 577.729 157.846 577.112 157.307C576.124 156.498 575.877 156.633 575.754 157.981C575.63 158.925 575.507 160.206 575.63 160.812C575.754 161.486 575.26 162.026 574.519 162.026C573.778 162.026 573.654 162.363 574.272 162.835C575.63 164.048 575.507 166.272 574.025 166.879C573.284 167.216 573.408 167.62 574.519 168.025C575.507 168.362 575.877 169.103 575.383 169.98C574.642 171.125 573.778 171.328 570.074 170.991C566.987 170.721 565.875 170.788 566.493 171.328C566.987 171.732 567.974 171.934 568.839 171.732C569.703 171.597 571.679 172.339 573.161 173.485C575.63 175.237 575.754 175.574 574.025 175.911C573.037 176.181 571.308 175.979 570.444 175.574C569.086 174.968 568.468 174.968 567.728 175.574C567.234 175.979 567.728 176.653 568.962 176.99C572.049 177.933 571.308 178.945 567.851 178.473C565.505 178.136 564.764 178.338 564.764 179.147C564.764 179.753 565.381 180.225 565.999 180.225C566.74 180.225 567.234 180.967 567.234 181.91C567.234 183.73 564.023 184.27 561.307 182.787C560.566 182.382 559.455 182.247 558.961 182.517C558.343 182.787 559.084 183.461 560.442 184C561.801 184.472 564.27 185.618 565.999 186.427L569.086 187.842L565.011 187.438L560.936 186.966L564.517 188.584C566.369 189.527 569.456 190.471 571.308 190.673C573.161 190.943 574.642 191.415 574.642 191.752C574.642 192.089 669.597 192.358 801.841 192.358C1028.79 192.358 1029.04 192.358 1031.51 191.01C1032.99 190.201 1033.73 189.325 1033.36 188.988C1032.13 187.977 1035.09 185.618 1037.56 185.618C1038.79 185.618 1040.52 185.146 1041.39 184.607C1042.5 183.933 1042.5 183.596 1041.51 183.596C1040.77 183.596 1040.15 182.854 1040.15 181.91C1040.15 180.765 1040.89 180.225 1042.25 180.225C1045.83 180.225 1042.62 179.282 1038.55 179.147C1032.25 179.012 1032 178.877 1034.47 177.866C1036.82 176.922 1040.89 173.148 1038.92 173.822C1038.18 174.091 1037.68 173.889 1037.68 173.485C1037.68 173.013 1036.94 172.811 1035.95 173.013C1033.24 173.619 1032.62 172.743 1034.6 171.193C1037.68 168.834 1036.7 168.429 1031.14 169.777C1028.18 170.451 1026.69 169.508 1029.16 168.564C1030.27 168.092 1031.51 167.081 1032 166.272C1032.74 165.059 1032.5 164.857 1030.27 165.194C1028.3 165.463 1027.93 165.329 1028.55 164.452C1029.04 163.846 1028.92 163.374 1028.3 163.441C1025.71 163.711 1025.34 163.306 1027.06 162.295C1028.67 161.419 1028.79 161.015 1027.56 159.801C1026.69 158.992 1026.2 157.846 1026.45 157.307C1026.69 156.498 1026.45 156.431 1025.21 157.105C1024.35 157.577 1023.61 159.127 1023.48 160.543C1023.48 161.891 1022.87 163.509 1022.25 164.048C1021.63 164.587 1021.01 165.329 1021.01 165.733C1021.01 166.07 1020.52 167.351 1020.03 168.497C1018.91 170.991 1014.22 172.204 1014.22 170.047C1014.22 169.373 1014.84 168.766 1015.46 168.766C1016.2 168.766 1016.69 168.429 1016.69 168.025C1016.69 167.688 1016.2 167.553 1015.46 167.755C1014.84 167.957 1014.22 167.688 1014.22 167.148C1014.22 166.542 1013.36 166.07 1012.12 166.07C1010.27 166.07 1010.27 166.003 1012.12 164.857C1013.36 164.183 1014.22 163.239 1014.22 162.835C1014.22 162.363 1014.96 162.026 1015.83 162.026C1017.68 162.026 1021.26 158.858 1020.15 158.318C1019.29 157.779 1012.99 159.397 1012.99 160.138C1012.99 160.408 1012.12 160.678 1011.01 160.678C1009.65 160.678 1009.28 160.273 1009.9 159.262C1010.64 158.049 1010.39 157.914 1008.17 158.318C1006.44 158.588 1005.58 158.453 1005.58 157.846C1005.58 156.566 1008.05 155.285 1010.52 155.285C1011.63 155.285 1012.49 154.746 1012.49 153.869C1012.49 152.589 1012 152.521 1007.8 152.858C1001.75 153.398 1001.5 151.982 1007.06 149.151L1011.01 147.196H1007.68C1005.33 147.196 1004.47 146.927 1005.09 146.387C1005.7 145.916 1005.33 145.781 1004.1 145.983C1003.11 146.253 1001.5 146.118 1000.52 145.848C999.158 145.376 999.405 144.972 1001.63 143.624C1004.47 142.006 1004.22 140.928 1001.13 141.602C998.911 142.073 998.911 140.995 1001.13 138.096C1002.86 135.872 1002.86 135.737 1000.39 135.737C997.924 135.737 997.924 135.67 1000.15 132.704C1000.89 131.76 997.43 129.199 996.318 129.805C995.824 130.075 995.454 131.086 995.454 132.03C995.454 133.041 994.713 133.715 993.725 133.715C992.491 133.715 992.12 134.187 992.737 135.468C993.478 137.018 993.231 137.153 990.885 136.748C988.91 136.411 988.416 136.546 989.033 137.355C989.404 137.894 990.515 138.501 991.503 138.703C992.491 138.905 993.231 139.714 993.231 140.523C993.231 141.939 993.108 141.939 990.885 140.86C988.91 139.916 988.539 139.849 987.922 140.725C987.551 141.265 988.045 141.871 989.033 142.073C990.638 142.41 990.638 142.68 988.91 144.028C987.181 145.511 987.181 145.781 988.91 146.522C989.897 146.994 990.762 147.803 990.762 148.342C990.762 149.218 990.391 149.218 988.91 148.544C987.922 148.073 987.057 147.938 987.057 148.207C987.057 148.544 985.946 148.207 984.588 147.533C980.637 145.579 980.637 146.724 984.588 149.286C988.539 151.78 989.774 154.139 986.44 152.589C985.452 152.117 984.588 151.982 984.588 152.252C984.588 152.521 983.106 152.184 981.254 151.578C978.167 150.432 978.044 150.432 979.031 151.645C979.525 152.387 980.019 153.465 980.143 154.072C980.143 154.746 981.131 155.285 982.365 155.285C985.082 155.285 986.564 156.633 984.588 157.307C983.724 157.577 983.353 158.318 983.724 158.925C984.341 159.734 983.971 160.003 982.365 159.869C980.76 159.734 980.39 160.071 980.76 161.352C981.748 164.587 981.501 166.272 980.019 166.542C979.031 166.744 978.414 166.272 978.414 165.463C978.414 164.452 977.797 164.183 976.438 164.52C974.833 164.857 974.586 164.722 975.698 163.643C976.438 162.902 976.685 161.554 976.315 160.543C975.821 159.195 976.191 158.521 977.673 158.251C978.784 158.049 979.649 157.577 979.649 157.307C979.649 156.633 976.438 156.835 975.204 157.509C973.845 158.251 969.771 158.049 969.771 157.307C969.771 156.903 970.265 156.633 970.758 156.633C971.376 156.633 973.105 156.026 974.71 155.285C977.55 153.937 977.179 153.6 971.87 153.128C969.647 152.926 969.647 152.791 972.24 151.038C975.08 149.084 975.08 147.668 972.24 149.555C968.659 151.915 964.708 150.095 967.795 147.533C969.771 145.916 969.771 145.848 967.054 145.781C965.449 145.781 964.955 145.579 965.819 145.376C966.56 145.242 966.931 144.77 966.56 144.433C966.19 144.028 966.56 143.354 967.301 142.815C968.536 142.006 968.412 141.804 966.19 141.804C964.708 141.804 963.597 141.399 963.72 140.928C964.214 138.636 963.473 134.996 962.485 135.333C961.868 135.535 961.498 136.951 961.621 138.501C961.745 139.984 961.498 141.332 960.88 141.534C960.386 141.736 960.51 142.545 961.251 143.354C962.238 144.23 962.238 144.837 961.498 144.972C960.757 145.107 960.51 145.916 960.757 146.859C961.251 148.207 961.004 148.41 958.781 148.073C957.299 147.87 956.188 148.005 956.188 148.477C956.188 148.881 956.559 149.218 957.176 149.218C958.781 149.218 961.127 151.847 960.386 152.926C959.769 153.735 958.658 153.869 955.941 153.6C952.484 153.195 952.36 153.263 953.595 154.476C954.336 155.218 954.583 156.364 954.212 156.903C953.719 157.577 954.212 158.116 955.447 158.386C956.559 158.588 957.423 159.195 957.423 159.734C957.423 160.88 955.941 160.947 953.842 159.801C952.484 159.127 952.113 159.195 951.619 159.869C951.249 160.273 950.385 160.475 949.644 160.206C948.903 160.003 949.273 160.475 950.385 161.419C952.978 163.374 952.978 164.048 950.632 164.048C949.52 164.048 949.15 164.452 949.644 165.126C950.138 165.935 949.767 166.137 948.039 165.935C946.31 165.733 945.816 165.194 946.063 163.846L946.433 161.958L942.976 163.172C939.642 164.317 939.519 164.317 941.371 163.104C942.359 162.363 943.099 161.284 942.853 160.678C942.606 159.936 943.47 159.329 944.952 159.127C946.68 158.925 947.174 158.386 946.68 157.375C946.186 156.296 945.569 156.094 943.84 156.633C940.383 157.644 940.013 157.509 940.877 155.622C941.371 154.678 941.124 153.937 940.383 153.937C938.407 153.937 939.519 151.847 941.988 150.836C944.952 149.623 943.593 149.623 938.037 150.904C932.48 152.184 932.48 152.184 933.962 150.567C934.58 149.825 935.814 148.612 936.432 147.87C937.543 146.724 937.296 146.522 935.197 146.522C932.357 146.522 931.986 145.848 934.333 144.567C935.567 143.759 935.444 143.691 933.468 144.096C931.369 144.5 931.246 144.23 931.863 141.871C932.11 140.456 931.863 138.838 931.246 138.366C930.258 137.625 930.134 137.625 930.628 138.501C930.999 139.108 930.381 140.186 929.146 140.928C927.418 141.871 927.171 142.613 928.035 143.826C928.776 144.837 928.653 145.579 928.035 145.713C927.294 145.848 927.171 146.522 927.418 147.331C927.912 148.073 927.418 148.949 926.43 149.286C925.072 149.758 924.948 150.095 926.307 151.241C928.282 152.993 928.159 153.465 925.936 152.993C924.701 152.791 924.084 153.061 924.084 153.869C924.084 155.622 922.726 156.094 920.503 155.15C919.021 154.476 919.021 154.611 920.627 155.689C921.985 156.566 922.602 157.914 922.355 159.464C921.985 162.026 918.651 164.587 917.293 163.374C916.922 163.037 916.922 162.7 917.54 162.7C918.034 162.7 917.91 162.43 917.046 162.16C915.811 161.756 915.934 161.217 917.169 159.869C918.651 158.318 918.651 158.116 917.169 158.453C914.947 158.858 914.7 155.285 916.799 154.139C917.91 153.532 917.54 153.465 915.44 153.735C912.847 154.072 912.724 153.937 913.465 152.387C913.835 151.443 913.712 150.499 912.971 150.23C912.354 150.027 912.23 149.353 912.6 148.747C913.094 148.073 912.847 147.803 912.107 148.073C911.366 148.342 910.501 149.893 910.131 151.645C909.884 153.398 908.896 155.015 908.032 155.285C907.291 155.555 906.674 155.959 906.674 156.229C906.797 156.431 906.674 156.768 906.674 156.97C906.056 158.251 906.303 159.06 907.291 159.397C907.908 159.666 908.032 160.408 907.538 161.015C906.921 161.891 906.427 162.026 905.068 161.419C902.969 160.475 897.166 161.149 894.573 162.565C893.091 163.374 892.597 163.374 892.227 162.7C891.856 162.16 893.461 160.88 895.684 159.801L899.882 157.779L895.067 158.251L890.251 158.79L895.067 156.364C897.66 155.015 900.747 153.937 901.734 153.937C903.34 153.869 903.216 153.735 901.488 153.195C900.129 152.724 896.919 152.656 893.708 152.926C888.522 153.33 888.275 153.263 889.634 152.117C890.375 151.375 892.227 150.499 893.585 150.162C896.795 149.353 895.931 148.207 892.35 148.41C888.646 148.679 888.646 147.331 892.35 146.859C896.919 146.185 896.054 144.5 891.486 144.904C887.658 145.242 887.658 145.242 890.128 144.028C893.708 142.208 893.708 141.197 890.128 141.534C886.794 141.871 885.682 140.253 888.646 139.512C889.757 139.175 889.757 139.04 888.646 138.703C887.658 138.433 887.535 137.827 888.275 136.681C889.14 135.468 889.016 135.063 887.658 135.063C885.435 135.063 883.83 133.715 885.559 133.108C886.3 132.906 886.547 131.895 886.176 130.817C885.188 127.986 882.595 128.592 883.213 131.491C883.336 131.962 882.595 132.367 881.484 132.367C879.015 132.367 879.138 132.974 881.855 134.187C883.336 134.861 883.46 135.265 882.472 135.468C881.608 135.67 881.361 136.276 881.731 136.816C882.102 137.355 881.731 137.759 881.114 137.759C880.249 137.759 880.496 138.501 881.608 139.579C884.077 142.208 883.83 142.68 880.249 142.208C878.027 141.871 877.162 142.073 877.162 142.815C877.162 143.354 877.903 143.826 878.891 143.826C879.755 143.826 881.237 144.23 881.978 144.77C884.201 146.185 880.62 147.533 877.286 146.522C873.829 145.579 874.075 146.185 877.78 148.41C881.361 150.567 881.978 152.319 878.768 151.578C877.533 151.308 875.434 150.904 874.075 150.701C871.853 150.432 871.853 150.499 874.569 152.184C876.545 153.33 877.039 153.937 875.928 153.937C874.94 153.937 876.175 154.813 878.397 155.959C882.472 157.914 882.472 157.981 879.508 157.981C877.903 157.981 874.94 157.509 872.964 156.97C869.26 155.892 866.543 156.229 869.754 157.375C871.235 157.846 871.359 158.049 869.877 158.588C868.642 159.06 868.766 159.329 870.865 160.138C872.223 160.678 873.952 161.891 874.569 162.902C875.804 164.587 875.681 164.722 873.088 164.587C871.606 164.452 869.63 164.115 868.889 163.846C866.914 163.172 868.149 165.261 870.618 166.811C871.482 167.418 871.853 168.092 871.359 168.362C870.742 168.631 870.371 169.238 870.371 169.643C870.371 170.114 869.383 170.384 868.149 170.384C866.543 170.317 866.296 170.654 866.79 171.867C867.284 172.878 867.037 173.485 866.173 173.485C863.703 173.485 863.086 171.26 865.062 169.373C867.037 167.553 867.037 167.553 863.456 167.755C859.999 168.025 858.641 167.216 861.11 166.407C862.962 165.733 862.592 163.98 860.616 164.183C859.629 164.317 858.764 164.115 858.888 163.778C858.888 163.441 858.147 162.902 857.159 162.632C856.295 162.295 855.554 161.486 855.554 160.745C855.554 159.936 855.06 159.329 854.319 159.329C853.702 159.329 853.084 159.734 853.084 160.138C853.084 160.61 852.59 161.217 851.85 161.486C851.232 161.756 850.615 162.969 850.615 164.183C850.615 166.003 850.121 166.34 848.269 166.205C846.17 166.003 846.17 166.07 847.651 166.946C849.133 167.688 849.75 170.384 848.886 172.002C848.763 172.069 847.651 171.867 846.416 171.462C844.194 170.856 844.07 170.991 844.688 173.148C845.058 174.496 844.811 175.507 844.194 175.507C842.959 175.507 839.502 172.137 839.872 171.26C839.996 170.991 839.625 170.788 839.008 170.788C838.39 170.788 838.02 170.047 838.02 169.103C838.02 167.351 836.909 166.272 835.921 166.811C835.55 166.946 835.057 168.564 834.563 170.384C834.192 172.204 833.575 173.889 833.204 174.226C832.093 175.237 830.241 174.9 830.982 173.822C831.476 173.282 830.858 172.676 829.747 172.406C828.265 172.069 828.018 171.732 829.006 171.125C829.994 170.519 829.747 169.98 828.389 169.238C827.401 168.631 826.537 167.755 826.537 167.148C826.537 166.609 825.919 165.935 825.302 165.733C824.561 165.463 824.314 164.722 824.684 163.98C825.178 163.306 824.931 162.7 824.191 162.7C823.573 162.7 822.709 162.16 822.338 161.486C821.968 160.88 821.844 161.149 822.091 162.228C822.338 163.239 821.968 164.25 821.474 164.452C820.857 164.654 820.733 165.598 821.104 166.542C821.844 167.957 821.597 168.227 819.992 167.89C818.634 167.62 818.264 167.755 818.758 168.497C819.128 168.968 818.758 169.44 818.017 169.44C817.276 169.44 816.658 169.98 816.658 170.721C816.658 171.395 815.3 172.474 813.571 173.08C811.843 173.687 810.485 173.889 810.485 173.552C810.485 173.215 811.102 172.676 811.719 172.474C813.695 171.8 813.201 170.586 811.102 171.058C808.509 171.597 808.756 170.384 811.719 168.766C816.041 166.407 814.436 165.666 805.916 166.07C801.841 166.205 802.335 164.452 806.904 162.497C810.731 160.88 810.731 160.812 808.262 160.34C806.78 160.138 805.051 160.138 804.311 160.34C803.693 160.543 803.076 160.408 803.076 160.071C803.076 159.666 804.187 158.992 805.422 158.521C807.891 157.712 807.645 155.824 805.175 156.364C804.311 156.498 802.952 156.364 801.965 156.026C800.483 155.487 800.483 155.218 801.718 154.341C803.076 153.465 803.076 153.263 801.347 153.263C800.236 153.263 799.372 152.926 799.372 152.589C799.372 152.184 799.989 151.915 800.73 151.915C801.718 151.915 801.718 151.645 800.73 150.971C799.989 150.432 799.372 149.758 799.495 149.488C799.865 148.14 799.372 146.522 798.384 146.522C797.519 146.522 796.902 149.353 796.532 153.6C796.532 154.341 796.902 155.487 797.519 156.161C798.26 157.24 798.013 157.307 795.05 156.903C791.963 156.498 791.839 156.566 793.074 157.914C793.939 158.655 795.05 159.329 795.667 159.329C796.408 159.329 796.902 159.801 796.902 160.34C796.902 161.689 796.038 161.621 792.333 160.003C790.481 159.262 788.752 158.79 788.382 159.06C788.012 159.262 788.505 159.801 789.493 160.273C791.592 161.149 794.432 163.711 794.432 164.722C794.432 165.666 789.864 165.531 789.123 164.52C788.876 164.115 788.135 163.913 787.641 164.25C787.024 164.52 787.888 165.463 789.37 166.34L792.21 167.957L788.752 168.227L785.172 168.429L788.259 169.912C789.987 170.856 790.481 171.462 789.493 171.462C788.629 171.462 788.135 171.665 788.629 171.867C789.37 172.339 786.53 174.159 785.172 174.159C784.678 174.159 784.554 173.552 784.925 172.811C785.295 172.069 784.925 171.597 784.184 171.665C782.332 171.867 783.072 167.957 785.048 167.283C785.912 166.946 785.666 166.744 784.307 166.744C781.714 166.744 781.591 166.474 783.443 164.587C784.678 163.374 784.554 163.239 782.332 163.509C779.615 163.913 777.763 162.497 779.245 161.149C780.603 159.936 780.726 158.588 779.492 159.06C778.38 159.397 777.886 158.453 778.38 156.701C778.751 155.015 777.146 152.521 775.787 152.926C775.17 153.195 774.923 154.004 775.293 154.678C775.787 155.42 775.54 156.431 774.676 156.903C773.935 157.442 773.194 158.992 772.947 160.408C772.577 162.295 771.836 163.037 770.478 162.969C768.996 162.902 768.749 163.239 769.243 164.52C769.984 166.003 769.737 166.07 766.526 165.666C763.069 165.194 762.946 165.194 765.168 166.542C767.02 167.688 767.144 168.227 765.909 169.71C765.045 170.654 763.563 171.462 762.699 171.462C761.711 171.462 761.34 171.125 761.711 170.788C762.081 170.384 761.587 169.575 760.476 168.968C758.747 168.092 758.253 168.025 757.389 168.766C756.154 169.845 751.215 170.384 751.215 169.508C751.215 169.103 752.327 168.429 753.685 167.89C755.043 167.351 755.784 166.744 755.29 166.542C754.92 166.272 755.537 165.463 756.772 164.722C759.241 163.239 757.883 162.969 753.067 164.183C748.375 165.329 748.005 164.385 752.327 162.026C754.426 160.812 755.907 159.599 755.537 159.329C755.167 158.992 756.154 158.116 757.636 157.375C760.229 155.959 760.229 155.959 757.76 155.959C756.401 155.959 753.808 156.633 751.956 157.375C748.622 158.79 745.782 158.655 748.375 157.24C749.116 156.835 749.487 156.094 749.116 155.622C748.869 155.15 749.61 154.544 750.968 154.341C752.327 154.072 753.685 153.465 754.055 152.993C754.549 152.319 753.561 152.184 750.227 152.319C747.634 152.387 744.671 152.656 743.56 152.926C742.201 153.263 741.337 153.128 741.337 152.589C741.337 152.117 740.349 151.915 738.867 152.117C737.509 152.319 736.398 152.184 736.398 151.847C736.398 151.241 737.756 150.499 743.683 148.207C746.029 147.264 747.387 146.522 746.647 146.522C745.782 146.522 743.683 146.185 741.831 145.848C738.621 145.174 738.621 145.107 740.72 143.826C742.695 142.613 742.819 142.478 740.967 142.478C737.88 142.478 738.374 141.399 742.325 139.849C745.288 138.636 745.412 138.433 743.189 138.366C741.831 138.299 740.226 138.164 739.485 138.096C738.867 137.962 737.756 137.894 737.139 137.827C736.521 137.827 737.262 137.018 738.867 136.074L741.707 134.389H738.497C734.175 134.389 733.558 133.513 736.768 131.962L739.485 130.682L736.768 130.48C733.805 130.21 733.064 129.401 735.163 128.66C737.139 127.986 736.645 126.974 734.546 127.379C732.323 127.851 732.2 127.379 734.175 125.424C735.41 124.143 735.287 124.076 733.681 124.817C731.953 125.559 731.706 125.289 731.706 122.863C731.582 121.312 731.335 119.897 730.965 119.695C730.594 119.492 730.224 119.829 730.224 120.436ZM647.618 151.645C648.852 152.521 648.852 152.791 647.371 153.33C644.531 154.274 642.555 154.004 642.555 152.724C642.555 150.432 645.025 149.893 647.618 151.645ZM651.939 155.352C652.31 155.757 652.186 156.364 651.569 156.701C649.84 157.644 646.259 156.701 647.124 155.555C647.864 154.409 650.704 154.274 651.939 155.352ZM652.433 160.34C652.433 160.88 651.692 161.352 650.704 161.352C648.605 161.352 647.247 160.408 648.358 159.734C649.84 158.925 652.433 159.329 652.433 160.34ZM902.599 165.733C902.846 167.081 902.228 167.418 899.759 167.418C897.66 167.418 897.042 167.148 897.783 166.542C898.277 166.137 898.771 165.531 898.894 165.194C899.018 164.924 899.141 164.587 899.265 164.385C899.265 164.183 900.129 164.048 900.994 164.048C901.734 164.048 902.599 164.789 902.599 165.733ZM905.562 168.766C905.562 169.643 902.105 170.451 900.87 169.845C900.5 169.575 900.87 169.103 901.858 168.766C904.327 167.89 905.562 167.957 905.562 168.766Z" fill="#00290C"/>
<path d="M629.96 121.717C631.072 122.323 631.812 122.323 632.924 121.717C634.035 121.11 633.788 120.908 631.442 120.908C629.096 120.908 628.849 121.11 629.96 121.717Z" fill="#00290C"/>
<path d="M997.183 127.649C997.183 128.592 997.43 128.929 997.801 128.457C998.048 128.053 998.048 127.244 997.801 126.772C997.43 126.368 997.183 126.705 997.183 127.649Z" fill="#00290C"/>
<path d="M705.035 147.331C704.664 148.207 704.788 149.084 705.282 149.353C705.776 149.623 706.393 148.949 706.516 147.87C706.887 145.511 706.146 145.241 705.035 147.331Z" fill="#00290C"/>
<path d="M642.061 225.859C641.32 226.803 641.444 226.87 642.678 226.264C643.543 225.792 643.913 225.253 643.543 225.05C643.172 224.848 642.431 225.185 642.061 225.859Z" fill="#00290C"/>
<path d="M906.797 286.862C906.797 287.468 907.414 288.21 908.032 288.412C909.637 288.951 909.637 288.075 908.032 286.727C907.044 285.851 906.797 285.851 906.797 286.862Z" fill="#00290C"/>
</svg>
